%TF.GenerationSoftware,KiCad,Pcbnew,(6.0.1-0)*%
%TF.CreationDate,2022-02-17T22:02:20-07:00*%
%TF.ProjectId,MCU Datalogger,4d435520-4461-4746-916c-6f676765722e,1*%
%TF.SameCoordinates,Original*%
%TF.FileFunction,Soldermask,Top*%
%TF.FilePolarity,Negative*%
%FSLAX46Y46*%
G04 Gerber Fmt 4.6, Leading zero omitted, Abs format (unit mm)*
G04 Created by KiCad (PCBNEW (6.0.1-0)) date 2022-02-17 22:02:20*
%MOMM*%
%LPD*%
G01*
G04 APERTURE LIST*
G04 Aperture macros list*
%AMRoundRect*
0 Rectangle with rounded corners*
0 $1 Rounding radius*
0 $2 $3 $4 $5 $6 $7 $8 $9 X,Y pos of 4 corners*
0 Add a 4 corners polygon primitive as box body*
4,1,4,$2,$3,$4,$5,$6,$7,$8,$9,$2,$3,0*
0 Add four circle primitives for the rounded corners*
1,1,$1+$1,$2,$3*
1,1,$1+$1,$4,$5*
1,1,$1+$1,$6,$7*
1,1,$1+$1,$8,$9*
0 Add four rect primitives between the rounded corners*
20,1,$1+$1,$2,$3,$4,$5,0*
20,1,$1+$1,$4,$5,$6,$7,0*
20,1,$1+$1,$6,$7,$8,$9,0*
20,1,$1+$1,$8,$9,$2,$3,0*%
G04 Aperture macros list end*
%ADD10RoundRect,0.250000X0.262500X0.450000X-0.262500X0.450000X-0.262500X-0.450000X0.262500X-0.450000X0*%
%ADD11RoundRect,0.250000X-0.262500X-0.450000X0.262500X-0.450000X0.262500X0.450000X-0.262500X0.450000X0*%
%ADD12C,2.100000*%
%ADD13RoundRect,0.250000X0.250000X0.475000X-0.250000X0.475000X-0.250000X-0.475000X0.250000X-0.475000X0*%
%ADD14RoundRect,0.243750X-0.243750X-0.456250X0.243750X-0.456250X0.243750X0.456250X-0.243750X0.456250X0*%
%ADD15R,1.700000X1.700000*%
%ADD16O,1.700000X1.700000*%
%ADD17RoundRect,0.150000X-0.650000X-0.150000X0.650000X-0.150000X0.650000X0.150000X-0.650000X0.150000X0*%
%ADD18R,2.400000X3.500000*%
%ADD19R,1.500000X0.550000*%
%ADD20R,0.550000X1.500000*%
%ADD21RoundRect,0.250000X-0.250000X-0.475000X0.250000X-0.475000X0.250000X0.475000X-0.250000X0.475000X0*%
%ADD22R,3.500000X2.400000*%
%ADD23RoundRect,0.041300X-0.943700X-0.253700X0.943700X-0.253700X0.943700X0.253700X-0.943700X0.253700X0*%
G04 APERTURE END LIST*
D10*
%TO.C,R4*%
X116103400Y-85801200D03*
X114278400Y-85801200D03*
%TD*%
%TO.C,R2*%
X89863300Y-100355400D03*
X88038300Y-100355400D03*
%TD*%
D11*
%TO.C,R7*%
X114454300Y-81559400D03*
X116279300Y-81559400D03*
%TD*%
D10*
%TO.C,R5*%
X120241700Y-81559400D03*
X118416700Y-81559400D03*
%TD*%
D12*
%TO.C,H2*%
X126034800Y-103860600D03*
%TD*%
D13*
%TO.C,C2*%
X113243400Y-93802200D03*
X111343400Y-93802200D03*
%TD*%
D14*
%TO.C,D2*%
X114505500Y-77698600D03*
X116380500Y-77698600D03*
%TD*%
D15*
%TO.C,J4*%
X112786000Y-104216200D03*
D16*
X115326000Y-104216200D03*
X117866000Y-104216200D03*
X120406000Y-104216200D03*
%TD*%
D17*
%TO.C,U1*%
X84690400Y-83693000D03*
X84690400Y-84963000D03*
X84690400Y-86233000D03*
X84690400Y-87503000D03*
X91890400Y-87503000D03*
X91890400Y-86233000D03*
X91890400Y-84963000D03*
X91890400Y-83693000D03*
%TD*%
D18*
%TO.C,Y1*%
X80568800Y-92065800D03*
X80568800Y-97265800D03*
%TD*%
D15*
%TO.C,J1*%
X85013800Y-104267000D03*
D16*
X87553800Y-104267000D03*
X90093800Y-104267000D03*
X92633800Y-104267000D03*
X95173800Y-104267000D03*
X97713800Y-104267000D03*
X100253800Y-104267000D03*
X102793800Y-104267000D03*
X105333800Y-104267000D03*
%TD*%
D19*
%TO.C,U4*%
X98138200Y-84703000D03*
X98138200Y-85503000D03*
X98138200Y-86303000D03*
X98138200Y-87103000D03*
X98138200Y-87903000D03*
X98138200Y-88703000D03*
X98138200Y-89503000D03*
X98138200Y-90303000D03*
D20*
X99638200Y-91803000D03*
X100438200Y-91803000D03*
X101238200Y-91803000D03*
X102038200Y-91803000D03*
X102838200Y-91803000D03*
X103638200Y-91803000D03*
X104438200Y-91803000D03*
X105238200Y-91803000D03*
D19*
X106738200Y-90303000D03*
X106738200Y-89503000D03*
X106738200Y-88703000D03*
X106738200Y-87903000D03*
X106738200Y-87103000D03*
X106738200Y-86303000D03*
X106738200Y-85503000D03*
X106738200Y-84703000D03*
D20*
X105238200Y-83203000D03*
X104438200Y-83203000D03*
X103638200Y-83203000D03*
X102838200Y-83203000D03*
X102038200Y-83203000D03*
X101238200Y-83203000D03*
X100438200Y-83203000D03*
X99638200Y-83203000D03*
%TD*%
D17*
%TO.C,U3*%
X84792000Y-77419200D03*
X84792000Y-78689200D03*
X84792000Y-79959200D03*
X84792000Y-81229200D03*
X91992000Y-81229200D03*
X91992000Y-79959200D03*
X91992000Y-78689200D03*
X91992000Y-77419200D03*
%TD*%
D14*
%TO.C,D1*%
X118493300Y-78130400D03*
X120368300Y-78130400D03*
%TD*%
D15*
%TO.C,J3*%
X123997800Y-82946000D03*
D16*
X126537800Y-82946000D03*
X123997800Y-85486000D03*
X126537800Y-85486000D03*
X123997800Y-88026000D03*
X126537800Y-88026000D03*
%TD*%
D12*
%TO.C,H3*%
X80518000Y-78333600D03*
%TD*%
D10*
%TO.C,R3*%
X116152300Y-87985600D03*
X114327300Y-87985600D03*
%TD*%
D12*
%TO.C,H1*%
X126034800Y-78308200D03*
%TD*%
%TO.C,H4*%
X80518000Y-103809800D03*
%TD*%
D21*
%TO.C,C5*%
X108371600Y-77724000D03*
X110271600Y-77724000D03*
%TD*%
%TO.C,C1*%
X96763800Y-77393800D03*
X98663800Y-77393800D03*
%TD*%
D22*
%TO.C,Y2*%
X102777600Y-99593400D03*
X97577600Y-99593400D03*
%TD*%
D15*
%TO.C,J2*%
X126415800Y-91973400D03*
D16*
X126415800Y-94513400D03*
X126415800Y-97053400D03*
X126415800Y-99593400D03*
%TD*%
D15*
%TO.C,BT1*%
X80010000Y-83942000D03*
D16*
X80010000Y-86482000D03*
%TD*%
D11*
%TO.C,R1*%
X83948900Y-100380800D03*
X85773900Y-100380800D03*
%TD*%
%TO.C,R6*%
X118111900Y-85826600D03*
X119936900Y-85826600D03*
%TD*%
D23*
%TO.C,U2*%
X85663000Y-91033600D03*
X85663000Y-92303600D03*
X85663000Y-93573600D03*
X85663000Y-94843600D03*
X90613000Y-94843600D03*
X90613000Y-93573600D03*
X90613000Y-92303600D03*
X90613000Y-91033600D03*
%TD*%
D21*
%TO.C,C3*%
X100802400Y-77368400D03*
X102702400Y-77368400D03*
%TD*%
D13*
%TO.C,C4*%
X116255800Y-98501200D03*
X114355800Y-98501200D03*
%TD*%
M02*
