%TF.GenerationSoftware,KiCad,Pcbnew,(6.0.1-0)*%
%TF.CreationDate,2022-02-17T22:04:00-07:00*%
%TF.ProjectId,MCU Datalogger,4d435520-4461-4746-916c-6f676765722e,1*%
%TF.SameCoordinates,Original*%
%TF.FileFunction,Plated,1,4,PTH,Drill*%
%TF.FilePolarity,Positive*%
%FSLAX46Y46*%
G04 Gerber Fmt 4.6, Leading zero omitted, Abs format (unit mm)*
G04 Created by KiCad (PCBNEW (6.0.1-0)) date 2022-02-17 22:04:00*
%MOMM*%
%LPD*%
G01*
G04 APERTURE LIST*
%TA.AperFunction,ViaDrill*%
%ADD10C,0.400000*%
%TD*%
%TA.AperFunction,ComponentDrill*%
%ADD11C,1.000000*%
%TD*%
G04 APERTURE END LIST*
D10*
X83235800Y-88011000D03*
X83293118Y-81046802D03*
X83794600Y-95199200D03*
X85140800Y-98907600D03*
X86309200Y-85013800D03*
X86512400Y-79222600D03*
X88671400Y-91313000D03*
X89204800Y-99136200D03*
X89255600Y-86258400D03*
X90296823Y-77239412D03*
X90398600Y-78384400D03*
X90791300Y-84564083D03*
X91084400Y-83007200D03*
X96494600Y-87579200D03*
X96596200Y-90398600D03*
X97586800Y-97637600D03*
X99974400Y-87223600D03*
X100101400Y-85750400D03*
X100960028Y-78960895D03*
X101041200Y-89560400D03*
X101117400Y-96836900D03*
X101150627Y-79942057D03*
X102116074Y-85599406D03*
X103378000Y-81203800D03*
X103911400Y-89230200D03*
X104013000Y-86715600D03*
X104384483Y-87750446D03*
X104808036Y-86100988D03*
X105315541Y-89273868D03*
X106730800Y-78460600D03*
X107289600Y-91770200D03*
X109282900Y-91363800D03*
X109282900Y-93649800D03*
X110972600Y-78892400D03*
X111328200Y-89839800D03*
X111455200Y-96875600D03*
X111734600Y-90932000D03*
X112852200Y-95148400D03*
X112979200Y-85826600D03*
X113014219Y-86825488D03*
X113461800Y-97231200D03*
X115493800Y-97485200D03*
X115570000Y-82854800D03*
X115620800Y-79171800D03*
X116357400Y-89335100D03*
X116980700Y-88429342D03*
X117805200Y-89433400D03*
X118694200Y-87122000D03*
X118770400Y-91490800D03*
X119278400Y-84378800D03*
X119634000Y-80010000D03*
X119888000Y-91262200D03*
X122174000Y-87376000D03*
D11*
%TO.C,BT1*%
X80010000Y-83942000D03*
X80010000Y-86482000D03*
%TO.C,J1*%
X85013800Y-104267000D03*
X87553800Y-104267000D03*
X90093800Y-104267000D03*
X92633800Y-104267000D03*
X95173800Y-104267000D03*
X97713800Y-104267000D03*
X100253800Y-104267000D03*
X102793800Y-104267000D03*
X105333800Y-104267000D03*
%TO.C,J4*%
X112786000Y-104216200D03*
X115326000Y-104216200D03*
X117866000Y-104216200D03*
X120406000Y-104216200D03*
%TO.C,J3*%
X123997800Y-82946000D03*
X123997800Y-85486000D03*
X123997800Y-88026000D03*
%TO.C,J2*%
X126415800Y-91973400D03*
X126415800Y-94513400D03*
X126415800Y-97053400D03*
X126415800Y-99593400D03*
%TO.C,J3*%
X126537800Y-82946000D03*
X126537800Y-85486000D03*
X126537800Y-88026000D03*
M02*
