%TF.GenerationSoftware,KiCad,Pcbnew,(6.0.1-0)*%
%TF.CreationDate,2022-02-17T22:02:19-07:00*%
%TF.ProjectId,MCU Datalogger,4d435520-4461-4746-916c-6f676765722e,1*%
%TF.SameCoordinates,Original*%
%TF.FileFunction,Copper,L1,Top*%
%TF.FilePolarity,Positive*%
%FSLAX46Y46*%
G04 Gerber Fmt 4.6, Leading zero omitted, Abs format (unit mm)*
G04 Created by KiCad (PCBNEW (6.0.1-0)) date 2022-02-17 22:02:19*
%MOMM*%
%LPD*%
G01*
G04 APERTURE LIST*
G04 Aperture macros list*
%AMRoundRect*
0 Rectangle with rounded corners*
0 $1 Rounding radius*
0 $2 $3 $4 $5 $6 $7 $8 $9 X,Y pos of 4 corners*
0 Add a 4 corners polygon primitive as box body*
4,1,4,$2,$3,$4,$5,$6,$7,$8,$9,$2,$3,0*
0 Add four circle primitives for the rounded corners*
1,1,$1+$1,$2,$3*
1,1,$1+$1,$4,$5*
1,1,$1+$1,$6,$7*
1,1,$1+$1,$8,$9*
0 Add four rect primitives between the rounded corners*
20,1,$1+$1,$2,$3,$4,$5,0*
20,1,$1+$1,$4,$5,$6,$7,0*
20,1,$1+$1,$6,$7,$8,$9,0*
20,1,$1+$1,$8,$9,$2,$3,0*%
G04 Aperture macros list end*
%TA.AperFunction,SMDPad,CuDef*%
%ADD10RoundRect,0.250000X0.262500X0.450000X-0.262500X0.450000X-0.262500X-0.450000X0.262500X-0.450000X0*%
%TD*%
%TA.AperFunction,SMDPad,CuDef*%
%ADD11RoundRect,0.250000X-0.262500X-0.450000X0.262500X-0.450000X0.262500X0.450000X-0.262500X0.450000X0*%
%TD*%
%TA.AperFunction,SMDPad,CuDef*%
%ADD12RoundRect,0.250000X0.250000X0.475000X-0.250000X0.475000X-0.250000X-0.475000X0.250000X-0.475000X0*%
%TD*%
%TA.AperFunction,SMDPad,CuDef*%
%ADD13RoundRect,0.243750X-0.243750X-0.456250X0.243750X-0.456250X0.243750X0.456250X-0.243750X0.456250X0*%
%TD*%
%TA.AperFunction,ComponentPad*%
%ADD14R,1.700000X1.700000*%
%TD*%
%TA.AperFunction,ComponentPad*%
%ADD15O,1.700000X1.700000*%
%TD*%
%TA.AperFunction,SMDPad,CuDef*%
%ADD16RoundRect,0.150000X-0.650000X-0.150000X0.650000X-0.150000X0.650000X0.150000X-0.650000X0.150000X0*%
%TD*%
%TA.AperFunction,SMDPad,CuDef*%
%ADD17R,2.400000X3.500000*%
%TD*%
%TA.AperFunction,SMDPad,CuDef*%
%ADD18R,1.500000X0.550000*%
%TD*%
%TA.AperFunction,SMDPad,CuDef*%
%ADD19R,0.550000X1.500000*%
%TD*%
%TA.AperFunction,SMDPad,CuDef*%
%ADD20RoundRect,0.250000X-0.250000X-0.475000X0.250000X-0.475000X0.250000X0.475000X-0.250000X0.475000X0*%
%TD*%
%TA.AperFunction,SMDPad,CuDef*%
%ADD21R,3.500000X2.400000*%
%TD*%
%TA.AperFunction,SMDPad,CuDef*%
%ADD22RoundRect,0.041300X-0.943700X-0.253700X0.943700X-0.253700X0.943700X0.253700X-0.943700X0.253700X0*%
%TD*%
%TA.AperFunction,ViaPad*%
%ADD23C,0.800000*%
%TD*%
%TA.AperFunction,ViaPad*%
%ADD24C,0.900000*%
%TD*%
%TA.AperFunction,Conductor*%
%ADD25C,0.250000*%
%TD*%
%TA.AperFunction,Conductor*%
%ADD26C,0.350000*%
%TD*%
G04 APERTURE END LIST*
D10*
%TO.P,R4,1*%
%TO.N,/Vcc*%
X116103400Y-85801200D03*
%TO.P,R4,2*%
%TO.N,/SDA*%
X114278400Y-85801200D03*
%TD*%
%TO.P,R2,1*%
%TO.N,/Vcc*%
X89863300Y-100355400D03*
%TO.P,R2,2*%
%TO.N,Net-(R2-Pad2)*%
X88038300Y-100355400D03*
%TD*%
D11*
%TO.P,R7,1*%
%TO.N,Net-(D2-Pad1)*%
X114454300Y-81559400D03*
%TO.P,R7,2*%
%TO.N,GND*%
X116279300Y-81559400D03*
%TD*%
D10*
%TO.P,R5,1*%
%TO.N,GND*%
X120241700Y-81559400D03*
%TO.P,R5,2*%
%TO.N,Net-(D1-Pad1)*%
X118416700Y-81559400D03*
%TD*%
D12*
%TO.P,C2,1*%
%TO.N,GND*%
X113243400Y-93802200D03*
%TO.P,C2,2*%
%TO.N,Net-(C2-Pad2)*%
X111343400Y-93802200D03*
%TD*%
D13*
%TO.P,D2,1,K*%
%TO.N,Net-(D2-Pad1)*%
X114505500Y-77698600D03*
%TO.P,D2,2,A*%
%TO.N,/Vcc*%
X116380500Y-77698600D03*
%TD*%
D14*
%TO.P,J4,1,Pin_1*%
%TO.N,GND*%
X112786000Y-104216200D03*
D15*
%TO.P,J4,2,Pin_2*%
%TO.N,/Vcc*%
X115326000Y-104216200D03*
%TO.P,J4,3,Pin_3*%
%TO.N,/RX*%
X117866000Y-104216200D03*
%TO.P,J4,4,Pin_4*%
%TO.N,/TX*%
X120406000Y-104216200D03*
%TD*%
D16*
%TO.P,U1,1,A0*%
%TO.N,/Vcc*%
X84690400Y-83693000D03*
%TO.P,U1,2,A1*%
X84690400Y-84963000D03*
%TO.P,U1,3,A2*%
X84690400Y-86233000D03*
%TO.P,U1,4,GND*%
%TO.N,GND*%
X84690400Y-87503000D03*
%TO.P,U1,5,SDA*%
%TO.N,/SDA*%
X91890400Y-87503000D03*
%TO.P,U1,6,SCL*%
%TO.N,/SCL*%
X91890400Y-86233000D03*
%TO.P,U1,7,WP*%
%TO.N,GND*%
X91890400Y-84963000D03*
%TO.P,U1,8,VCC*%
%TO.N,/Vcc*%
X91890400Y-83693000D03*
%TD*%
D17*
%TO.P,Y1,1,1*%
%TO.N,Net-(U2-Pad1)*%
X80568800Y-92065800D03*
%TO.P,Y1,2,2*%
%TO.N,Net-(U2-Pad2)*%
X80568800Y-97265800D03*
%TD*%
D14*
%TO.P,J1,1,Pin_1*%
%TO.N,/D2*%
X85013800Y-104267000D03*
D15*
%TO.P,J1,2,Pin_2*%
%TO.N,/D3*%
X87553800Y-104267000D03*
%TO.P,J1,3,Pin_3*%
%TO.N,/D4*%
X90093800Y-104267000D03*
%TO.P,J1,4,Pin_4*%
%TO.N,/D5*%
X92633800Y-104267000D03*
%TO.P,J1,5,Pin_5*%
%TO.N,/D6*%
X95173800Y-104267000D03*
%TO.P,J1,6,Pin_6*%
%TO.N,/D7*%
X97713800Y-104267000D03*
%TO.P,J1,7,Pin_7*%
%TO.N,/D8*%
X100253800Y-104267000D03*
%TO.P,J1,8,Pin_8*%
%TO.N,GND*%
X102793800Y-104267000D03*
%TO.P,J1,9,Pin_9*%
%TO.N,/Vcc*%
X105333800Y-104267000D03*
%TD*%
D18*
%TO.P,U4,1,PD3*%
%TO.N,/D3*%
X98138200Y-84703000D03*
%TO.P,U4,2,PD4*%
%TO.N,/D4*%
X98138200Y-85503000D03*
%TO.P,U4,3,GND*%
%TO.N,GND*%
X98138200Y-86303000D03*
%TO.P,U4,4,VCC*%
%TO.N,/Vcc*%
X98138200Y-87103000D03*
%TO.P,U4,5,GND*%
%TO.N,GND*%
X98138200Y-87903000D03*
%TO.P,U4,6,VCC*%
%TO.N,unconnected-(U4-Pad6)*%
X98138200Y-88703000D03*
%TO.P,U4,7,PB6*%
%TO.N,Net-(C2-Pad2)*%
X98138200Y-89503000D03*
%TO.P,U4,8,PB7*%
%TO.N,Net-(C3-Pad2)*%
X98138200Y-90303000D03*
D19*
%TO.P,U4,9,PD5*%
%TO.N,/D5*%
X99638200Y-91803000D03*
%TO.P,U4,10,PD6*%
%TO.N,/D6*%
X100438200Y-91803000D03*
%TO.P,U4,11,PD7*%
%TO.N,/D7*%
X101238200Y-91803000D03*
%TO.P,U4,12,PB0*%
%TO.N,/D8*%
X102038200Y-91803000D03*
%TO.P,U4,13,PB1*%
%TO.N,unconnected-(U4-Pad13)*%
X102838200Y-91803000D03*
%TO.P,U4,14,PB2*%
%TO.N,unconnected-(U4-Pad14)*%
X103638200Y-91803000D03*
%TO.P,U4,15,PB3*%
%TO.N,/MOSI*%
X104438200Y-91803000D03*
%TO.P,U4,16,PB4*%
%TO.N,/MISO*%
X105238200Y-91803000D03*
D18*
%TO.P,U4,17,PB5*%
%TO.N,/SCK*%
X106738200Y-90303000D03*
%TO.P,U4,18,AVCC*%
%TO.N,/Vcc*%
X106738200Y-89503000D03*
%TO.P,U4,19,ADC6*%
%TO.N,unconnected-(U4-Pad19)*%
X106738200Y-88703000D03*
%TO.P,U4,20,AREF*%
%TO.N,Net-(C4-Pad2)*%
X106738200Y-87903000D03*
%TO.P,U4,21,GND*%
%TO.N,GND*%
X106738200Y-87103000D03*
%TO.P,U4,22,ADC7*%
%TO.N,unconnected-(U4-Pad22)*%
X106738200Y-86303000D03*
%TO.P,U4,23,PC0*%
%TO.N,unconnected-(U4-Pad23)*%
X106738200Y-85503000D03*
%TO.P,U4,24,PC1*%
%TO.N,unconnected-(U4-Pad24)*%
X106738200Y-84703000D03*
D19*
%TO.P,U4,25,PC2*%
%TO.N,unconnected-(U4-Pad25)*%
X105238200Y-83203000D03*
%TO.P,U4,26,PC3*%
%TO.N,unconnected-(U4-Pad26)*%
X104438200Y-83203000D03*
%TO.P,U4,27,PC4*%
%TO.N,/SDA*%
X103638200Y-83203000D03*
%TO.P,U4,28,PC5*%
%TO.N,/SCL*%
X102838200Y-83203000D03*
%TO.P,U4,29,PC6/~{RESET}*%
%TO.N,/RESET*%
X102038200Y-83203000D03*
%TO.P,U4,30,PD0*%
%TO.N,/RX*%
X101238200Y-83203000D03*
%TO.P,U4,31,PD1*%
%TO.N,/TX*%
X100438200Y-83203000D03*
%TO.P,U4,32,PD2*%
%TO.N,/D2*%
X99638200Y-83203000D03*
%TD*%
D16*
%TO.P,U3,1,A0*%
%TO.N,/Vcc*%
X84792000Y-77419200D03*
%TO.P,U3,2,A1*%
%TO.N,GND*%
X84792000Y-78689200D03*
%TO.P,U3,3,A2*%
%TO.N,/Vcc*%
X84792000Y-79959200D03*
%TO.P,U3,4,GND*%
%TO.N,GND*%
X84792000Y-81229200D03*
%TO.P,U3,5,SDA*%
%TO.N,/SDA*%
X91992000Y-81229200D03*
%TO.P,U3,6,SCL*%
%TO.N,/SCL*%
X91992000Y-79959200D03*
%TO.P,U3,7,WP*%
%TO.N,GND*%
X91992000Y-78689200D03*
%TO.P,U3,8,VCC*%
%TO.N,/Vcc*%
X91992000Y-77419200D03*
%TD*%
D13*
%TO.P,D1,1,K*%
%TO.N,Net-(D1-Pad1)*%
X118493300Y-78130400D03*
%TO.P,D1,2,A*%
%TO.N,/SCK*%
X120368300Y-78130400D03*
%TD*%
D14*
%TO.P,J3,1,Pin_1*%
%TO.N,/MISO*%
X123997800Y-82946000D03*
D15*
%TO.P,J3,2,Pin_2*%
%TO.N,/Vcc*%
X126537800Y-82946000D03*
%TO.P,J3,3,Pin_3*%
%TO.N,/SCK*%
X123997800Y-85486000D03*
%TO.P,J3,4,Pin_4*%
%TO.N,/MOSI*%
X126537800Y-85486000D03*
%TO.P,J3,5,Pin_5*%
%TO.N,/RESET*%
X123997800Y-88026000D03*
%TO.P,J3,6,Pin_6*%
%TO.N,GND*%
X126537800Y-88026000D03*
%TD*%
D10*
%TO.P,R3,1*%
%TO.N,/Vcc*%
X116152300Y-87985600D03*
%TO.P,R3,2*%
%TO.N,/SCL*%
X114327300Y-87985600D03*
%TD*%
D20*
%TO.P,C5,1*%
%TO.N,/Vcc*%
X108371600Y-77724000D03*
%TO.P,C5,2*%
%TO.N,GND*%
X110271600Y-77724000D03*
%TD*%
%TO.P,C1,1*%
%TO.N,/Vcc*%
X96763800Y-77393800D03*
%TO.P,C1,2*%
%TO.N,GND*%
X98663800Y-77393800D03*
%TD*%
D21*
%TO.P,Y2,1,1*%
%TO.N,Net-(C3-Pad2)*%
X102777600Y-99593400D03*
%TO.P,Y2,2,2*%
%TO.N,Net-(C2-Pad2)*%
X97577600Y-99593400D03*
%TD*%
D14*
%TO.P,J2,1,Pin_1*%
%TO.N,GND*%
X126415800Y-91973400D03*
D15*
%TO.P,J2,2,Pin_2*%
%TO.N,/Vcc*%
X126415800Y-94513400D03*
%TO.P,J2,3,Pin_3*%
%TO.N,/SDA*%
X126415800Y-97053400D03*
%TO.P,J2,4,Pin_4*%
%TO.N,/SCL*%
X126415800Y-99593400D03*
%TD*%
D14*
%TO.P,BT1,1,+*%
%TO.N,/Vcc*%
X80010000Y-83942000D03*
D15*
%TO.P,BT1,2,-*%
%TO.N,GND*%
X80010000Y-86482000D03*
%TD*%
D11*
%TO.P,R1,1*%
%TO.N,/Vcc*%
X83948900Y-100380800D03*
%TO.P,R1,2*%
%TO.N,Net-(R1-Pad2)*%
X85773900Y-100380800D03*
%TD*%
%TO.P,R6,1*%
%TO.N,/Vcc*%
X118111900Y-85826600D03*
%TO.P,R6,2*%
%TO.N,/RESET*%
X119936900Y-85826600D03*
%TD*%
D22*
%TO.P,U2,1,X1*%
%TO.N,Net-(U2-Pad1)*%
X85663000Y-91033600D03*
%TO.P,U2,2,X2*%
%TO.N,Net-(U2-Pad2)*%
X85663000Y-92303600D03*
%TO.P,U2,3,~{INTA}*%
%TO.N,Net-(R1-Pad2)*%
X85663000Y-93573600D03*
%TO.P,U2,4,GND*%
%TO.N,GND*%
X85663000Y-94843600D03*
%TO.P,U2,5,SDA*%
%TO.N,/SDA*%
X90613000Y-94843600D03*
%TO.P,U2,6,SCL*%
%TO.N,/SCL*%
X90613000Y-93573600D03*
%TO.P,U2,7,SQW/~{INT}*%
%TO.N,Net-(R2-Pad2)*%
X90613000Y-92303600D03*
%TO.P,U2,8,VCC*%
%TO.N,/Vcc*%
X90613000Y-91033600D03*
%TD*%
D20*
%TO.P,C3,1*%
%TO.N,GND*%
X100802400Y-77368400D03*
%TO.P,C3,2*%
%TO.N,Net-(C3-Pad2)*%
X102702400Y-77368400D03*
%TD*%
D12*
%TO.P,C4,1*%
%TO.N,GND*%
X116255800Y-98501200D03*
%TO.P,C4,2*%
%TO.N,Net-(C4-Pad2)*%
X114355800Y-98501200D03*
%TD*%
D23*
%TO.N,/MISO*%
X107289600Y-91770200D03*
%TO.N,/MOSI*%
X109282900Y-93649800D03*
%TO.N,/SCK*%
X122174000Y-87376000D03*
X109282900Y-91363800D03*
X111328200Y-89839800D03*
%TO.N,/SCL*%
X89255600Y-86258400D03*
X100101400Y-85750400D03*
D24*
%TO.N,/Vcc*%
X96494600Y-87579200D03*
D23*
%TO.N,/SDA*%
X103378000Y-81203800D03*
X101150627Y-79942057D03*
D24*
%TO.N,/Vcc*%
X116980700Y-88429342D03*
X105315541Y-89273868D03*
X118694200Y-87122000D03*
X115620800Y-79171800D03*
X106730800Y-78460600D03*
X90296823Y-77239412D03*
X83293118Y-81046802D03*
X86309200Y-85013800D03*
X91084400Y-83007200D03*
X88671400Y-91313000D03*
X89204800Y-99136200D03*
X85140800Y-98907600D03*
%TO.N,GND*%
X115493800Y-97485200D03*
X112852200Y-95148400D03*
X119634000Y-80010000D03*
X115570000Y-82854800D03*
X110972600Y-78892400D03*
X99974400Y-87223600D03*
X104384483Y-87750446D03*
X90398600Y-78384400D03*
X86512400Y-79222600D03*
X90791300Y-84564083D03*
X83794600Y-95199200D03*
X83235800Y-88011000D03*
D23*
%TO.N,/RESET*%
X102116074Y-85599406D03*
X119278400Y-84378800D03*
%TO.N,Net-(C2-Pad2)*%
X96596200Y-90398600D03*
%TO.N,/SDA*%
X119888000Y-91262200D03*
X117805200Y-89433400D03*
%TO.N,/SCL*%
X116357400Y-89335100D03*
X118770400Y-91490800D03*
%TO.N,Net-(C4-Pad2)*%
X103911400Y-89230200D03*
X113461800Y-97231200D03*
%TO.N,Net-(C2-Pad2)*%
X111455200Y-96875600D03*
X97586800Y-97637600D03*
%TO.N,Net-(C3-Pad2)*%
X100960028Y-78960895D03*
X101117400Y-96836900D03*
X101041200Y-89560400D03*
%TO.N,/SCL*%
X113014219Y-86825488D03*
X104013000Y-86715600D03*
%TO.N,/SDA*%
X104808036Y-86100988D03*
X112979200Y-85826600D03*
%TO.N,/MOSI*%
X111734600Y-90932000D03*
%TD*%
D25*
%TO.N,/MISO*%
X107256800Y-91803000D02*
X107289600Y-91770200D01*
X105238200Y-91803000D02*
X107256800Y-91803000D01*
%TO.N,/SCK*%
X109282900Y-91363800D02*
X108222100Y-90303000D01*
X108222100Y-90303000D02*
X106738200Y-90303000D01*
%TO.N,/MOSI*%
X104438200Y-92803000D02*
X105285000Y-93649800D01*
X104438200Y-91803000D02*
X104438200Y-92803000D01*
X105285000Y-93649800D02*
X109282900Y-93649800D01*
%TO.N,/SCK*%
X118380068Y-90220800D02*
X121224868Y-87376000D01*
X111667014Y-89839800D02*
X112048014Y-90220800D01*
X121224868Y-87376000D02*
X122174000Y-87376000D01*
X111328200Y-89839800D02*
X111667014Y-89839800D01*
X112048014Y-90220800D02*
X118380068Y-90220800D01*
%TO.N,/MOSI*%
X111785400Y-90881200D02*
X118355386Y-90881200D01*
X118355386Y-90881200D02*
X118698897Y-90537689D01*
X118698897Y-90537689D02*
X123147121Y-90537689D01*
X123147121Y-90537689D02*
X125313289Y-88371521D01*
X125313289Y-88371521D02*
X125313289Y-86710511D01*
X125313289Y-86710511D02*
X126537800Y-85486000D01*
%TO.N,/SCL*%
X89255600Y-86258400D02*
X89281000Y-86233000D01*
X104013000Y-86715600D02*
X101066600Y-86715600D01*
X101066600Y-86715600D02*
X100101400Y-85750400D01*
X89281000Y-86233000D02*
X91890400Y-86233000D01*
%TO.N,/SDA*%
X116638124Y-86875720D02*
X117805200Y-88042796D01*
X117805200Y-88042796D02*
X117805200Y-89433400D01*
X114278400Y-85801200D02*
X115352920Y-86875720D01*
X115352920Y-86875720D02*
X116638124Y-86875720D01*
%TO.N,/SCL*%
X115676800Y-89335100D02*
X114327300Y-87985600D01*
X116357400Y-89335100D02*
X115676800Y-89335100D01*
X126415800Y-99593400D02*
X126415800Y-98755200D01*
X126415800Y-98755200D02*
X119647311Y-91986711D01*
X119647311Y-91986711D02*
X119266311Y-91986711D01*
X119266311Y-91986711D02*
X118770400Y-91490800D01*
%TO.N,/SDA*%
X125349718Y-97053400D02*
X126415800Y-97053400D01*
X119888000Y-91591682D02*
X125349718Y-97053400D01*
X119888000Y-91262200D02*
X119888000Y-91591682D01*
%TO.N,Net-(C3-Pad2)*%
X100998105Y-78960895D02*
X102590600Y-77368400D01*
X100960028Y-78960895D02*
X100998105Y-78960895D01*
X102590600Y-77368400D02*
X102702400Y-77368400D01*
D26*
%TO.N,/Vcc*%
X96970800Y-87103000D02*
X96494600Y-87579200D01*
X98138200Y-87103000D02*
X96970800Y-87103000D01*
D25*
%TO.N,/SDA*%
X99863484Y-81229200D02*
X101150627Y-79942057D01*
X91992000Y-81229200D02*
X99863484Y-81229200D01*
X103378000Y-81203800D02*
X103638200Y-81464000D01*
X103638200Y-81464000D02*
X103638200Y-83203000D01*
D26*
%TO.N,/Vcc*%
X83293118Y-81046802D02*
X84380720Y-79959200D01*
X84380720Y-79959200D02*
X84792000Y-79959200D01*
D25*
%TO.N,/D8*%
X100253800Y-104267000D02*
X100253800Y-94461422D01*
X100253800Y-94461422D02*
X102038200Y-92677022D01*
X102038200Y-92677022D02*
X102038200Y-91803000D01*
D26*
%TO.N,/Vcc*%
X116536958Y-87985600D02*
X116980700Y-88429342D01*
X116152300Y-87985600D02*
X116536958Y-87985600D01*
X105315541Y-89273868D02*
X105544673Y-89503000D01*
X105544673Y-89503000D02*
X106738200Y-89503000D01*
D25*
%TO.N,Net-(C4-Pad2)*%
X103911400Y-89230200D02*
X104070765Y-89230200D01*
X104070765Y-89230200D02*
X105397965Y-87903000D01*
X105397965Y-87903000D02*
X106738200Y-87903000D01*
D26*
%TO.N,/Vcc*%
X118111900Y-86539700D02*
X118694200Y-87122000D01*
X118111900Y-85826600D02*
X118111900Y-86539700D01*
X116103400Y-85801200D02*
X118086500Y-85801200D01*
X118086500Y-85801200D02*
X118111900Y-85826600D01*
X116380500Y-78412100D02*
X115620800Y-79171800D01*
X116380500Y-77698600D02*
X116380500Y-78412100D01*
X107467400Y-77724000D02*
X106730800Y-78460600D01*
X108371600Y-77724000D02*
X107467400Y-77724000D01*
X90476611Y-77419200D02*
X90296823Y-77239412D01*
X91992000Y-77419200D02*
X90476611Y-77419200D01*
X86258400Y-84963000D02*
X86309200Y-85013800D01*
X84690400Y-84963000D02*
X86258400Y-84963000D01*
X91770200Y-83693000D02*
X91084400Y-83007200D01*
X91890400Y-83693000D02*
X91770200Y-83693000D01*
X88950800Y-91033600D02*
X88671400Y-91313000D01*
X90613000Y-91033600D02*
X88950800Y-91033600D01*
X89863300Y-99794700D02*
X89204800Y-99136200D01*
X89863300Y-100355400D02*
X89863300Y-99794700D01*
X83948900Y-100099500D02*
X85140800Y-98907600D01*
X83948900Y-100380800D02*
X83948900Y-100099500D01*
%TO.N,GND*%
X116255800Y-98247200D02*
X115493800Y-97485200D01*
X116255800Y-98501200D02*
X116255800Y-98247200D01*
X113243400Y-94757200D02*
X112852200Y-95148400D01*
X113243400Y-93802200D02*
X113243400Y-94757200D01*
X120241700Y-80617700D02*
X119634000Y-80010000D01*
X120241700Y-81559400D02*
X120241700Y-80617700D01*
X116279300Y-82145500D02*
X115570000Y-82854800D01*
X116279300Y-81559400D02*
X116279300Y-82145500D01*
X110271600Y-78191400D02*
X110972600Y-78892400D01*
X110271600Y-77724000D02*
X110271600Y-78191400D01*
X98138200Y-86303000D02*
X99053800Y-86303000D01*
X99053800Y-86303000D02*
X99974400Y-87223600D01*
X99295000Y-87903000D02*
X99974400Y-87223600D01*
X98138200Y-87903000D02*
X99295000Y-87903000D01*
D25*
%TO.N,Net-(C3-Pad2)*%
X102336600Y-99593400D02*
X102777600Y-99593400D01*
X101117400Y-96836900D02*
X101117400Y-98374200D01*
X101117400Y-98374200D02*
X102336600Y-99593400D01*
X101041200Y-89560400D02*
X100298600Y-90303000D01*
X100298600Y-90303000D02*
X98138200Y-90303000D01*
D26*
%TO.N,GND*%
X105031929Y-87103000D02*
X104384483Y-87750446D01*
X106738200Y-87103000D02*
X105031929Y-87103000D01*
X90703400Y-78689200D02*
X90398600Y-78384400D01*
X91992000Y-78689200D02*
X90703400Y-78689200D01*
X86163773Y-79571227D02*
X86512400Y-79222600D01*
X86016520Y-79571227D02*
X86163773Y-79571227D01*
X91190217Y-84963000D02*
X90791300Y-84564083D01*
X91890400Y-84963000D02*
X91190217Y-84963000D01*
D25*
%TO.N,/SCL*%
X91992000Y-79959200D02*
X91790928Y-79959200D01*
X91790928Y-79959200D02*
X89966800Y-81783328D01*
X89966800Y-81783328D02*
X89966800Y-85826600D01*
X89966800Y-85826600D02*
X90373200Y-86233000D01*
X90373200Y-86233000D02*
X91890400Y-86233000D01*
D26*
%TO.N,GND*%
X83235800Y-88011000D02*
X83743800Y-87503000D01*
X83743800Y-87503000D02*
X84690400Y-87503000D01*
X84150200Y-94843600D02*
X83794600Y-95199200D01*
X85663000Y-94843600D02*
X84150200Y-94843600D01*
D25*
%TO.N,/RESET*%
X119936900Y-85826600D02*
X119936900Y-85037300D01*
X119936900Y-85037300D02*
X119278400Y-84378800D01*
X102116074Y-85599406D02*
X102116074Y-83280874D01*
X102116074Y-83280874D02*
X102038200Y-83203000D01*
%TO.N,/SDA*%
X104808036Y-86100988D02*
X103638200Y-84931152D01*
X103638200Y-84931152D02*
X103638200Y-83203000D01*
%TO.N,/SCL*%
X104013000Y-86715600D02*
X102838200Y-85540800D01*
X102838200Y-85540800D02*
X102838200Y-83203000D01*
%TO.N,/D2*%
X85013800Y-104267000D02*
X87087351Y-102193449D01*
X87087351Y-102193449D02*
X92343715Y-102193449D01*
X93255382Y-96597901D02*
X94681160Y-95172123D01*
X92343715Y-102193449D02*
X93255382Y-101281782D01*
X94681160Y-95172123D02*
X94681160Y-86486018D01*
X93255382Y-101281782D02*
X93255382Y-96597901D01*
X94681160Y-86486018D02*
X97964178Y-83203000D01*
X97964178Y-83203000D02*
X99638200Y-83203000D01*
%TO.N,/D3*%
X87553800Y-104267000D02*
X89177831Y-102642969D01*
X89177831Y-102642969D02*
X92529913Y-102642969D01*
X97264178Y-84703000D02*
X98138200Y-84703000D01*
X92529913Y-102642969D02*
X93705009Y-101467873D01*
X95130680Y-86836498D02*
X97264178Y-84703000D01*
X93705009Y-101467873D02*
X93705011Y-96783989D01*
X95130680Y-95358321D02*
X95130680Y-86836498D01*
X93705011Y-96783989D02*
X95130680Y-95358321D01*
%TO.N,/D4*%
X95580200Y-87086978D02*
X97013689Y-85653489D01*
X95580200Y-87122000D02*
X95580200Y-87086978D01*
X94154529Y-101654071D02*
X94154530Y-96970187D01*
X95580200Y-95544518D02*
X95580200Y-87122000D01*
X94154529Y-101654071D02*
X94030800Y-101777800D01*
X97013689Y-85653489D02*
X97815400Y-85653489D01*
X94154530Y-96970187D02*
X95117859Y-96006859D01*
X94030800Y-101777800D02*
X92716111Y-103092489D01*
X95117859Y-96006859D02*
X95580200Y-95544518D01*
X92716111Y-103092489D02*
X91268311Y-103092489D01*
X91268311Y-103092489D02*
X90093800Y-104267000D01*
%TO.N,/D7*%
X97713800Y-104267000D02*
X95503089Y-102056289D01*
X95503089Y-102056289D02*
X95503089Y-97528781D01*
X98424550Y-94607320D02*
X99169998Y-94607320D01*
X95503089Y-97528781D02*
X98424550Y-94607320D01*
X101238200Y-92539118D02*
X101238200Y-91803000D01*
X99169998Y-94607320D02*
X101238200Y-92539118D01*
%TO.N,/D5*%
X94604049Y-97156385D02*
X95359518Y-96400917D01*
X94604049Y-102296751D02*
X94604049Y-97156385D01*
X95359518Y-96400917D02*
X99638200Y-92122235D01*
X99638200Y-92122235D02*
X99638200Y-91803000D01*
X92633800Y-104267000D02*
X94604049Y-102296751D01*
%TO.N,/D6*%
X95173800Y-104267000D02*
X95053569Y-104146769D01*
X95053569Y-104146769D02*
X95053569Y-97342583D01*
X100438200Y-92703400D02*
X100438200Y-91803000D01*
X95053569Y-97342583D02*
X98238352Y-94157800D01*
X98983800Y-94157800D02*
X100438200Y-92703400D01*
X98238352Y-94157800D02*
X98983800Y-94157800D01*
%TO.N,Net-(C2-Pad2)*%
X97586800Y-97637600D02*
X97577600Y-97646800D01*
X97577600Y-97646800D02*
X97577600Y-99593400D01*
X96596200Y-90398600D02*
X96596200Y-90170978D01*
X96596200Y-90170978D02*
X97264178Y-89503000D01*
X97264178Y-89503000D02*
X98138200Y-89503000D01*
%TO.N,Net-(C4-Pad2)*%
X114355800Y-98125200D02*
X113461800Y-97231200D01*
X114355800Y-98501200D02*
X114355800Y-98125200D01*
%TO.N,Net-(C2-Pad2)*%
X111343400Y-96763800D02*
X111343400Y-93802200D01*
X111455200Y-96875600D02*
X111343400Y-96763800D01*
%TO.N,Net-(D1-Pad1)*%
X118416700Y-81559400D02*
X118416700Y-78207000D01*
X118416700Y-78207000D02*
X118493300Y-78130400D01*
%TO.N,Net-(D2-Pad1)*%
X114454300Y-81559400D02*
X114454300Y-77749800D01*
X114454300Y-77749800D02*
X114505500Y-77698600D01*
%TO.N,/SCL*%
X114174331Y-87985600D02*
X113014219Y-86825488D01*
X114327300Y-87985600D02*
X114174331Y-87985600D01*
%TO.N,/SDA*%
X113004600Y-85801200D02*
X112979200Y-85826600D01*
X114278400Y-85801200D02*
X113004600Y-85801200D01*
%TO.N,/RESET*%
X119936900Y-85826600D02*
X121798400Y-85826600D01*
X121798400Y-85826600D02*
X123997800Y-88026000D01*
%TO.N,/SCK*%
X120368300Y-78130400D02*
X120368300Y-79474300D01*
X120368300Y-79474300D02*
X122123200Y-81229200D01*
X122123200Y-81229200D02*
X122123200Y-83616800D01*
X122123200Y-83616800D02*
X122128600Y-83616800D01*
X122128600Y-83616800D02*
X123997800Y-85486000D01*
%TO.N,/SDA*%
X90613000Y-94843600D02*
X91057747Y-94843600D01*
X91057747Y-94843600D02*
X92575320Y-93326027D01*
X92575320Y-93326027D02*
X92575320Y-88187920D01*
X92575320Y-88187920D02*
X91890400Y-87503000D01*
%TO.N,/SCL*%
X90613000Y-93573600D02*
X91189422Y-93573600D01*
X91689328Y-86233000D02*
X91890400Y-86233000D01*
X91189422Y-93573600D02*
X92125800Y-92637222D01*
X92125800Y-92637222D02*
X92125800Y-90068400D01*
X92125800Y-90068400D02*
X90551000Y-88493600D01*
X90551000Y-88493600D02*
X90551000Y-87371328D01*
X90551000Y-87371328D02*
X91689328Y-86233000D01*
%TO.N,/SDA*%
X91890400Y-87503000D02*
X92091472Y-87503000D01*
X93064920Y-86529552D02*
X93064920Y-82302120D01*
X92091472Y-87503000D02*
X93064920Y-86529552D01*
X93064920Y-82302120D02*
X91992000Y-81229200D01*
D26*
%TO.N,GND*%
X98663800Y-77393800D02*
X100777000Y-77393800D01*
X100777000Y-77393800D02*
X100802400Y-77368400D01*
X91992000Y-78689200D02*
X97147315Y-78689200D01*
X97147315Y-78689200D02*
X98442715Y-77393800D01*
X98442715Y-77393800D02*
X98663800Y-77393800D01*
%TO.N,/Vcc*%
X91992000Y-77419200D02*
X96738400Y-77419200D01*
X96738400Y-77419200D02*
X96763800Y-77393800D01*
%TO.N,GND*%
X84792000Y-81229200D02*
X85134493Y-81229200D01*
X85134493Y-81229200D02*
X86016520Y-80347173D01*
X85134493Y-78689200D02*
X84792000Y-78689200D01*
X86016520Y-80347173D02*
X86016520Y-79571227D01*
X86016520Y-79571227D02*
X85134493Y-78689200D01*
%TO.N,/Vcc*%
X84792000Y-77419200D02*
X84412978Y-77419200D01*
X84412978Y-77419200D02*
X83567480Y-78264698D01*
X83567480Y-78264698D02*
X83567480Y-79077173D01*
X83567480Y-79077173D02*
X84449507Y-79959200D01*
X84449507Y-79959200D02*
X84792000Y-79959200D01*
X84690400Y-83693000D02*
X84690400Y-84963000D01*
X84690400Y-86233000D02*
X84690400Y-84963000D01*
D25*
%TO.N,Net-(U2-Pad2)*%
X80568800Y-97265800D02*
X80568800Y-96953053D01*
X85218253Y-92303600D02*
X85663000Y-92303600D01*
X80568800Y-96953053D02*
X85218253Y-92303600D01*
%TO.N,Net-(U2-Pad1)*%
X80568800Y-92065800D02*
X81601000Y-91033600D01*
X81601000Y-91033600D02*
X85663000Y-91033600D01*
%TO.N,Net-(R1-Pad2)*%
X85773900Y-100380800D02*
X87588780Y-98565920D01*
X87588780Y-98565920D02*
X87588780Y-96543500D01*
X87588780Y-96543500D02*
X87993280Y-96139000D01*
X87993280Y-96139000D02*
X87993280Y-94894400D01*
X87993280Y-94894400D02*
X86672480Y-93573600D01*
X86672480Y-93573600D02*
X85663000Y-93573600D01*
%TO.N,Net-(R2-Pad2)*%
X88038300Y-100355400D02*
X88038300Y-96873700D01*
X88038300Y-96873700D02*
X88442800Y-96469200D01*
X88442800Y-96469200D02*
X88442800Y-93624400D01*
X88442800Y-93624400D02*
X89763600Y-92303600D01*
X89763600Y-92303600D02*
X90613000Y-92303600D01*
%TO.N,/TX*%
X120406000Y-104216200D02*
X118787741Y-102597941D01*
X118787741Y-102597941D02*
X116883459Y-102597941D01*
X103428800Y-79941480D02*
X103403400Y-79916080D01*
X116883459Y-102597941D02*
X115359797Y-101074280D01*
X103403400Y-79916080D02*
X102201202Y-79916080D01*
X115359797Y-101074280D02*
X114384598Y-101074280D01*
X114384598Y-101074280D02*
X110456920Y-97146602D01*
X110456920Y-97146602D02*
X110456920Y-82643203D01*
X110456920Y-82643203D02*
X107755197Y-79941480D01*
X107755197Y-79941480D02*
X103428800Y-79941480D01*
X102201202Y-79916080D02*
X100438200Y-81679082D01*
X100438200Y-81679082D02*
X100438200Y-83203000D01*
%TO.N,/RX*%
X117866000Y-104216200D02*
X115173600Y-101523800D01*
X115173600Y-101523800D02*
X114198400Y-101523800D01*
X114198400Y-101523800D02*
X110007400Y-97332800D01*
X110007400Y-97332800D02*
X110007400Y-82829400D01*
X110007400Y-82829400D02*
X107569000Y-80391000D01*
X107569000Y-80391000D02*
X102412800Y-80391000D01*
X102412800Y-80391000D02*
X102387400Y-80365600D01*
X102387400Y-80365600D02*
X101238200Y-81514800D01*
X101238200Y-81514800D02*
X101238200Y-83203000D01*
%TD*%
M02*
