%TF.GenerationSoftware,KiCad,Pcbnew,(6.0.1-0)*%
%TF.CreationDate,2022-02-17T22:02:19-07:00*%
%TF.ProjectId,MCU Datalogger,4d435520-4461-4746-916c-6f676765722e,1*%
%TF.SameCoordinates,Original*%
%TF.FileFunction,Copper,L3,Inr*%
%TF.FilePolarity,Positive*%
%FSLAX46Y46*%
G04 Gerber Fmt 4.6, Leading zero omitted, Abs format (unit mm)*
G04 Created by KiCad (PCBNEW (6.0.1-0)) date 2022-02-17 22:02:19*
%MOMM*%
%LPD*%
G01*
G04 APERTURE LIST*
%TA.AperFunction,ComponentPad*%
%ADD10R,1.700000X1.700000*%
%TD*%
%TA.AperFunction,ComponentPad*%
%ADD11O,1.700000X1.700000*%
%TD*%
%TA.AperFunction,ViaPad*%
%ADD12C,0.800000*%
%TD*%
%TA.AperFunction,ViaPad*%
%ADD13C,0.900000*%
%TD*%
G04 APERTURE END LIST*
D10*
%TO.N,GND*%
%TO.C,J4*%
X112786000Y-104216200D03*
D11*
%TO.N,/Vcc*%
X115326000Y-104216200D03*
%TO.N,/RX*%
X117866000Y-104216200D03*
%TO.N,/TX*%
X120406000Y-104216200D03*
%TD*%
D10*
%TO.N,/D2*%
%TO.C,J1*%
X85013800Y-104267000D03*
D11*
%TO.N,/D3*%
X87553800Y-104267000D03*
%TO.N,/D4*%
X90093800Y-104267000D03*
%TO.N,/D5*%
X92633800Y-104267000D03*
%TO.N,/D6*%
X95173800Y-104267000D03*
%TO.N,/D7*%
X97713800Y-104267000D03*
%TO.N,/D8*%
X100253800Y-104267000D03*
%TO.N,GND*%
X102793800Y-104267000D03*
%TO.N,/Vcc*%
X105333800Y-104267000D03*
%TD*%
D10*
%TO.N,/MISO*%
%TO.C,J3*%
X123997800Y-82946000D03*
D11*
%TO.N,/Vcc*%
X126537800Y-82946000D03*
%TO.N,/SCK*%
X123997800Y-85486000D03*
%TO.N,/MOSI*%
X126537800Y-85486000D03*
%TO.N,/RESET*%
X123997800Y-88026000D03*
%TO.N,GND*%
X126537800Y-88026000D03*
%TD*%
D10*
%TO.N,GND*%
%TO.C,J2*%
X126415800Y-91973400D03*
D11*
%TO.N,/Vcc*%
X126415800Y-94513400D03*
%TO.N,/SDA*%
X126415800Y-97053400D03*
%TO.N,/SCL*%
X126415800Y-99593400D03*
%TD*%
D10*
%TO.N,/Vcc*%
%TO.C,BT1*%
X80010000Y-83942000D03*
D11*
%TO.N,GND*%
X80010000Y-86482000D03*
%TD*%
D12*
%TO.N,/MISO*%
X107289600Y-91770200D03*
%TO.N,/MOSI*%
X109282900Y-93649800D03*
%TO.N,/SCK*%
X122174000Y-87376000D03*
X109282900Y-91363800D03*
X111328200Y-89839800D03*
%TO.N,/SCL*%
X89255600Y-86258400D03*
X100101400Y-85750400D03*
D13*
%TO.N,/Vcc*%
X96494600Y-87579200D03*
D12*
%TO.N,/SDA*%
X103378000Y-81203800D03*
X101150627Y-79942057D03*
D13*
%TO.N,/Vcc*%
X116980700Y-88429342D03*
X105315541Y-89273868D03*
X118694200Y-87122000D03*
X115620800Y-79171800D03*
X106730800Y-78460600D03*
X90296823Y-77239412D03*
X83293118Y-81046802D03*
X86309200Y-85013800D03*
X91084400Y-83007200D03*
X88671400Y-91313000D03*
X89204800Y-99136200D03*
X85140800Y-98907600D03*
%TO.N,GND*%
X115493800Y-97485200D03*
X112852200Y-95148400D03*
X119634000Y-80010000D03*
X115570000Y-82854800D03*
X110972600Y-78892400D03*
X99974400Y-87223600D03*
X104384483Y-87750446D03*
X90398600Y-78384400D03*
X86512400Y-79222600D03*
X90791300Y-84564083D03*
X83794600Y-95199200D03*
X83235800Y-88011000D03*
D12*
%TO.N,/RESET*%
X102116074Y-85599406D03*
X119278400Y-84378800D03*
%TO.N,Net-(C2-Pad2)*%
X96596200Y-90398600D03*
%TO.N,/SDA*%
X119888000Y-91262200D03*
X117805200Y-89433400D03*
%TO.N,/SCL*%
X116357400Y-89335100D03*
X118770400Y-91490800D03*
%TO.N,Net-(C4-Pad2)*%
X103911400Y-89230200D03*
X113461800Y-97231200D03*
%TO.N,Net-(C2-Pad2)*%
X111455200Y-96875600D03*
X97586800Y-97637600D03*
%TO.N,Net-(C3-Pad2)*%
X100960028Y-78960895D03*
X101117400Y-96836900D03*
X101041200Y-89560400D03*
%TO.N,/SCL*%
X113014219Y-86825488D03*
X104013000Y-86715600D03*
%TO.N,/SDA*%
X104808036Y-86100988D03*
X112979200Y-85826600D03*
%TO.N,/MOSI*%
X111734600Y-90932000D03*
%TD*%
%TA.AperFunction,Conductor*%
%TO.N,/Vcc*%
G36*
X123575058Y-76601002D02*
G01*
X123621551Y-76654658D01*
X123632937Y-76707000D01*
X123632937Y-80746600D01*
X127638800Y-80835619D01*
X127706459Y-80857130D01*
X127751748Y-80911805D01*
X127762000Y-80961588D01*
X127762000Y-81947788D01*
X127741998Y-82015909D01*
X127688342Y-82062402D01*
X127618068Y-82072506D01*
X127553488Y-82043012D01*
X127542807Y-82032588D01*
X127470606Y-81953240D01*
X127463073Y-81946215D01*
X127295939Y-81814222D01*
X127287352Y-81808517D01*
X127100917Y-81705599D01*
X127091505Y-81701369D01*
X126890759Y-81630280D01*
X126880788Y-81627646D01*
X126809637Y-81614972D01*
X126796340Y-81616432D01*
X126791800Y-81630989D01*
X126791800Y-83074000D01*
X126771798Y-83142121D01*
X126718142Y-83188614D01*
X126665800Y-83200000D01*
X126409800Y-83200000D01*
X126341679Y-83179998D01*
X126295186Y-83126342D01*
X126283800Y-83074000D01*
X126283800Y-81629102D01*
X126279882Y-81615758D01*
X126265606Y-81613771D01*
X126227124Y-81619660D01*
X126217088Y-81622051D01*
X126014668Y-81688212D01*
X126005159Y-81692209D01*
X125816263Y-81790542D01*
X125807538Y-81796036D01*
X125637233Y-81923905D01*
X125629526Y-81930748D01*
X125552278Y-82011584D01*
X125490754Y-82047014D01*
X125419842Y-82043557D01*
X125362055Y-82002311D01*
X125343202Y-81968763D01*
X125301567Y-81857703D01*
X125298415Y-81849295D01*
X125211061Y-81732739D01*
X125094505Y-81645385D01*
X124958116Y-81594255D01*
X124895934Y-81587500D01*
X123099666Y-81587500D01*
X123037484Y-81594255D01*
X122901095Y-81645385D01*
X122784539Y-81732739D01*
X122697185Y-81849295D01*
X122646055Y-81985684D01*
X122639300Y-82047866D01*
X122639300Y-83844134D01*
X122646055Y-83906316D01*
X122697185Y-84042705D01*
X122784539Y-84159261D01*
X122901095Y-84246615D01*
X122909504Y-84249767D01*
X122909505Y-84249768D01*
X123018251Y-84290535D01*
X123075016Y-84333176D01*
X123099716Y-84399738D01*
X123084509Y-84469087D01*
X123065116Y-84495568D01*
X122970611Y-84594462D01*
X122938429Y-84628138D01*
X122935520Y-84632403D01*
X122935514Y-84632411D01*
X122894676Y-84692278D01*
X122812543Y-84812680D01*
X122774633Y-84894351D01*
X122748814Y-84949974D01*
X122718488Y-85015305D01*
X122658789Y-85230570D01*
X122635051Y-85452695D01*
X122635348Y-85457848D01*
X122635348Y-85457851D01*
X122647612Y-85670547D01*
X122647910Y-85675715D01*
X122649047Y-85680761D01*
X122649048Y-85680767D01*
X122663262Y-85743835D01*
X122697022Y-85893639D01*
X122735261Y-85987811D01*
X122770779Y-86075281D01*
X122781066Y-86100616D01*
X122825881Y-86173748D01*
X122895091Y-86286688D01*
X122897787Y-86291088D01*
X123044050Y-86459938D01*
X123215926Y-86602632D01*
X123276335Y-86637932D01*
X123289245Y-86645476D01*
X123337969Y-86697114D01*
X123351040Y-86766897D01*
X123324309Y-86832669D01*
X123283855Y-86866027D01*
X123271407Y-86872507D01*
X123267274Y-86875610D01*
X123267271Y-86875612D01*
X123148572Y-86964734D01*
X123082087Y-86989640D01*
X123012692Y-86974648D01*
X122963800Y-86926974D01*
X122916342Y-86844774D01*
X122916339Y-86844769D01*
X122913040Y-86839056D01*
X122906735Y-86832053D01*
X122789675Y-86702045D01*
X122789674Y-86702044D01*
X122785253Y-86697134D01*
X122630752Y-86584882D01*
X122624724Y-86582198D01*
X122624722Y-86582197D01*
X122462319Y-86509891D01*
X122462318Y-86509891D01*
X122456288Y-86507206D01*
X122337704Y-86482000D01*
X122275944Y-86468872D01*
X122275939Y-86468872D01*
X122269487Y-86467500D01*
X122078513Y-86467500D01*
X122072061Y-86468872D01*
X122072056Y-86468872D01*
X122010296Y-86482000D01*
X121891712Y-86507206D01*
X121885682Y-86509891D01*
X121885681Y-86509891D01*
X121723278Y-86582197D01*
X121723276Y-86582198D01*
X121717248Y-86584882D01*
X121562747Y-86697134D01*
X121558326Y-86702044D01*
X121558325Y-86702045D01*
X121441266Y-86832053D01*
X121434960Y-86839056D01*
X121339473Y-87004444D01*
X121280458Y-87186072D01*
X121279768Y-87192633D01*
X121279768Y-87192635D01*
X121273321Y-87253979D01*
X121260496Y-87376000D01*
X121261186Y-87382565D01*
X121278188Y-87544326D01*
X121280458Y-87565928D01*
X121339473Y-87747556D01*
X121342776Y-87753278D01*
X121342777Y-87753279D01*
X121364573Y-87791030D01*
X121434960Y-87912944D01*
X121439378Y-87917851D01*
X121439379Y-87917852D01*
X121548986Y-88039583D01*
X121562747Y-88054866D01*
X121717248Y-88167118D01*
X121723276Y-88169802D01*
X121723278Y-88169803D01*
X121885679Y-88242108D01*
X121891712Y-88244794D01*
X121985112Y-88264647D01*
X122072056Y-88283128D01*
X122072061Y-88283128D01*
X122078513Y-88284500D01*
X122269487Y-88284500D01*
X122275939Y-88283128D01*
X122275944Y-88283128D01*
X122362888Y-88264647D01*
X122456288Y-88244794D01*
X122462315Y-88242111D01*
X122462323Y-88242108D01*
X122496011Y-88227109D01*
X122566378Y-88217675D01*
X122630675Y-88247782D01*
X122670176Y-88314515D01*
X122697022Y-88433639D01*
X122739223Y-88537568D01*
X122770779Y-88615281D01*
X122781066Y-88640616D01*
X122819793Y-88703813D01*
X122895091Y-88826688D01*
X122897787Y-88831088D01*
X123044050Y-88999938D01*
X123120646Y-89063529D01*
X123211424Y-89138894D01*
X123215926Y-89142632D01*
X123408800Y-89255338D01*
X123617492Y-89335030D01*
X123622560Y-89336061D01*
X123622563Y-89336062D01*
X123729817Y-89357883D01*
X123836397Y-89379567D01*
X123841572Y-89379757D01*
X123841574Y-89379757D01*
X124054473Y-89387564D01*
X124054477Y-89387564D01*
X124059637Y-89387753D01*
X124064757Y-89387097D01*
X124064759Y-89387097D01*
X124276088Y-89360025D01*
X124276089Y-89360025D01*
X124281216Y-89359368D01*
X124340223Y-89341665D01*
X124490229Y-89296661D01*
X124490234Y-89296659D01*
X124495184Y-89295174D01*
X124695794Y-89196896D01*
X124877660Y-89067173D01*
X125035896Y-88909489D01*
X125067916Y-88864929D01*
X125166253Y-88728077D01*
X125167576Y-88729028D01*
X125214445Y-88685857D01*
X125284380Y-88673625D01*
X125349826Y-88701144D01*
X125377675Y-88732994D01*
X125386826Y-88747927D01*
X125437787Y-88831088D01*
X125584050Y-88999938D01*
X125660646Y-89063529D01*
X125751424Y-89138894D01*
X125755926Y-89142632D01*
X125948800Y-89255338D01*
X126157492Y-89335030D01*
X126162560Y-89336061D01*
X126162563Y-89336062D01*
X126269817Y-89357883D01*
X126376397Y-89379567D01*
X126381572Y-89379757D01*
X126381574Y-89379757D01*
X126594473Y-89387564D01*
X126594477Y-89387564D01*
X126599637Y-89387753D01*
X126604757Y-89387097D01*
X126604759Y-89387097D01*
X126816088Y-89360025D01*
X126816089Y-89360025D01*
X126821216Y-89359368D01*
X126880223Y-89341665D01*
X127030229Y-89296661D01*
X127030234Y-89296659D01*
X127035184Y-89295174D01*
X127235794Y-89196896D01*
X127417660Y-89067173D01*
X127547061Y-88938224D01*
X127609432Y-88904308D01*
X127680239Y-88909496D01*
X127737000Y-88952142D01*
X127761694Y-89018706D01*
X127762000Y-89027475D01*
X127762000Y-90607881D01*
X127741998Y-90676002D01*
X127688342Y-90722495D01*
X127618068Y-90732599D01*
X127560437Y-90708708D01*
X127512505Y-90672785D01*
X127376116Y-90621655D01*
X127313934Y-90614900D01*
X125517666Y-90614900D01*
X125455484Y-90621655D01*
X125319095Y-90672785D01*
X125202539Y-90760139D01*
X125115185Y-90876695D01*
X125064055Y-91013084D01*
X125057300Y-91075266D01*
X125057300Y-92871534D01*
X125064055Y-92933716D01*
X125115185Y-93070105D01*
X125202539Y-93186661D01*
X125319095Y-93274015D01*
X125327504Y-93277167D01*
X125327505Y-93277168D01*
X125436760Y-93318126D01*
X125493525Y-93360767D01*
X125518225Y-93427329D01*
X125503018Y-93496678D01*
X125483625Y-93523159D01*
X125360390Y-93652117D01*
X125353904Y-93660127D01*
X125233898Y-93836049D01*
X125228800Y-93845023D01*
X125139138Y-94038183D01*
X125135575Y-94047870D01*
X125080189Y-94247583D01*
X125081712Y-94256007D01*
X125094092Y-94259400D01*
X126543800Y-94259400D01*
X126611921Y-94279402D01*
X126658414Y-94333058D01*
X126669800Y-94385400D01*
X126669800Y-94641400D01*
X126649798Y-94709521D01*
X126596142Y-94756014D01*
X126543800Y-94767400D01*
X125099025Y-94767400D01*
X125085494Y-94771373D01*
X125084057Y-94781366D01*
X125114365Y-94915846D01*
X125117445Y-94925675D01*
X125197570Y-95123003D01*
X125202213Y-95132194D01*
X125313494Y-95313788D01*
X125319577Y-95322099D01*
X125459013Y-95483067D01*
X125466380Y-95490283D01*
X125630234Y-95626316D01*
X125638681Y-95632231D01*
X125707769Y-95672603D01*
X125756493Y-95724242D01*
X125769564Y-95794025D01*
X125742833Y-95859796D01*
X125702384Y-95893152D01*
X125689407Y-95899907D01*
X125685274Y-95903010D01*
X125685271Y-95903012D01*
X125514900Y-96030930D01*
X125510765Y-96034035D01*
X125356429Y-96195538D01*
X125230543Y-96380080D01*
X125190965Y-96465344D01*
X125150586Y-96552334D01*
X125136488Y-96582705D01*
X125076789Y-96797970D01*
X125053051Y-97020095D01*
X125053348Y-97025248D01*
X125053348Y-97025251D01*
X125060376Y-97147131D01*
X125065910Y-97243115D01*
X125067047Y-97248161D01*
X125067048Y-97248167D01*
X125076977Y-97292223D01*
X125115022Y-97461039D01*
X125199066Y-97668016D01*
X125201765Y-97672420D01*
X125307666Y-97845235D01*
X125315787Y-97858488D01*
X125462050Y-98027338D01*
X125633926Y-98170032D01*
X125662058Y-98186471D01*
X125707245Y-98212876D01*
X125755969Y-98264514D01*
X125769040Y-98334297D01*
X125742309Y-98400069D01*
X125701855Y-98433427D01*
X125689407Y-98439907D01*
X125685274Y-98443010D01*
X125685271Y-98443012D01*
X125514900Y-98570930D01*
X125510765Y-98574035D01*
X125356429Y-98735538D01*
X125230543Y-98920080D01*
X125136488Y-99122705D01*
X125076789Y-99337970D01*
X125053051Y-99560095D01*
X125065910Y-99783115D01*
X125067047Y-99788161D01*
X125067048Y-99788167D01*
X125088075Y-99881469D01*
X125115022Y-100001039D01*
X125199066Y-100208016D01*
X125315787Y-100398488D01*
X125462050Y-100567338D01*
X125633926Y-100710032D01*
X125826800Y-100822738D01*
X126035492Y-100902430D01*
X126040560Y-100903461D01*
X126040563Y-100903462D01*
X126147817Y-100925283D01*
X126254397Y-100946967D01*
X126259572Y-100947157D01*
X126259574Y-100947157D01*
X126472473Y-100954964D01*
X126472477Y-100954964D01*
X126477637Y-100955153D01*
X126482757Y-100954497D01*
X126482759Y-100954497D01*
X126694088Y-100927425D01*
X126694089Y-100927425D01*
X126699216Y-100926768D01*
X126704166Y-100925283D01*
X126908229Y-100864061D01*
X126908234Y-100864059D01*
X126913184Y-100862574D01*
X127113794Y-100764296D01*
X127295660Y-100634573D01*
X127453896Y-100476889D01*
X127533678Y-100365861D01*
X127589672Y-100322213D01*
X127660375Y-100315767D01*
X127723339Y-100348569D01*
X127758574Y-100410206D01*
X127762000Y-100439387D01*
X127762000Y-101478102D01*
X127741998Y-101546223D01*
X127688342Y-101592716D01*
X127620372Y-101603129D01*
X126381386Y-101448256D01*
X126381385Y-101448256D01*
X126376137Y-101447600D01*
X125791937Y-101473000D01*
X125787461Y-101473852D01*
X125787457Y-101473853D01*
X125560381Y-101517106D01*
X125258537Y-101574600D01*
X124344137Y-102082600D01*
X124335707Y-102095714D01*
X123672157Y-103127903D01*
X123658337Y-103149400D01*
X123658026Y-103166951D01*
X123658026Y-103166952D01*
X123617370Y-105464030D01*
X123596166Y-105531786D01*
X123541696Y-105577322D01*
X123491390Y-105587800D01*
X121216242Y-105587800D01*
X121148121Y-105567798D01*
X121101628Y-105514142D01*
X121091524Y-105443868D01*
X121121018Y-105379288D01*
X121143074Y-105359221D01*
X121281656Y-105260372D01*
X121281659Y-105260370D01*
X121285860Y-105257373D01*
X121296890Y-105246382D01*
X121389457Y-105154137D01*
X121444096Y-105099689D01*
X121461126Y-105075990D01*
X121571435Y-104922477D01*
X121574453Y-104918277D01*
X121587995Y-104890878D01*
X121671136Y-104722653D01*
X121671137Y-104722651D01*
X121673430Y-104718011D01*
X121724525Y-104549837D01*
X121736865Y-104509223D01*
X121736865Y-104509221D01*
X121738370Y-104504269D01*
X121767529Y-104282790D01*
X121767915Y-104267000D01*
X121769074Y-104219565D01*
X121769074Y-104219561D01*
X121769156Y-104216200D01*
X121750852Y-103993561D01*
X121696431Y-103776902D01*
X121607354Y-103572040D01*
X121508438Y-103419139D01*
X121488822Y-103388817D01*
X121488820Y-103388814D01*
X121486014Y-103384477D01*
X121335670Y-103219251D01*
X121331619Y-103216052D01*
X121331615Y-103216048D01*
X121164414Y-103084000D01*
X121164410Y-103083998D01*
X121160359Y-103080798D01*
X121124028Y-103060742D01*
X121056813Y-103023638D01*
X120964789Y-102972838D01*
X120959920Y-102971114D01*
X120959916Y-102971112D01*
X120759087Y-102899995D01*
X120759083Y-102899994D01*
X120754212Y-102898269D01*
X120749119Y-102897362D01*
X120749116Y-102897361D01*
X120539373Y-102860000D01*
X120539367Y-102859999D01*
X120534284Y-102859094D01*
X120460452Y-102858192D01*
X120316081Y-102856428D01*
X120316079Y-102856428D01*
X120310911Y-102856365D01*
X120090091Y-102890155D01*
X119877756Y-102959557D01*
X119679607Y-103062707D01*
X119675474Y-103065810D01*
X119675471Y-103065812D01*
X119516722Y-103185004D01*
X119500965Y-103196835D01*
X119497393Y-103200573D01*
X119380599Y-103322791D01*
X119346629Y-103358338D01*
X119239201Y-103515821D01*
X119184293Y-103560821D01*
X119113768Y-103568992D01*
X119050021Y-103537738D01*
X119029324Y-103513254D01*
X118948822Y-103388817D01*
X118948820Y-103388814D01*
X118946014Y-103384477D01*
X118795670Y-103219251D01*
X118791619Y-103216052D01*
X118791615Y-103216048D01*
X118624414Y-103084000D01*
X118624410Y-103083998D01*
X118620359Y-103080798D01*
X118584028Y-103060742D01*
X118516813Y-103023638D01*
X118424789Y-102972838D01*
X118419920Y-102971114D01*
X118419916Y-102971112D01*
X118219087Y-102899995D01*
X118219083Y-102899994D01*
X118214212Y-102898269D01*
X118209119Y-102897362D01*
X118209116Y-102897361D01*
X117999373Y-102860000D01*
X117999367Y-102859999D01*
X117994284Y-102859094D01*
X117920452Y-102858192D01*
X117776081Y-102856428D01*
X117776079Y-102856428D01*
X117770911Y-102856365D01*
X117550091Y-102890155D01*
X117337756Y-102959557D01*
X117139607Y-103062707D01*
X117135474Y-103065810D01*
X117135471Y-103065812D01*
X116976722Y-103185004D01*
X116960965Y-103196835D01*
X116957393Y-103200573D01*
X116840599Y-103322791D01*
X116806629Y-103358338D01*
X116803720Y-103362603D01*
X116803714Y-103362611D01*
X116800383Y-103367494D01*
X116699204Y-103515818D01*
X116698898Y-103516266D01*
X116643987Y-103561269D01*
X116573462Y-103569440D01*
X116509715Y-103538186D01*
X116489018Y-103513702D01*
X116408426Y-103389126D01*
X116402136Y-103380957D01*
X116258806Y-103223440D01*
X116251273Y-103216415D01*
X116084139Y-103084422D01*
X116075552Y-103078717D01*
X115889117Y-102975799D01*
X115879705Y-102971569D01*
X115678959Y-102900480D01*
X115668988Y-102897846D01*
X115597837Y-102885172D01*
X115584540Y-102886632D01*
X115580000Y-102901189D01*
X115580000Y-104344200D01*
X115559998Y-104412321D01*
X115506342Y-104458814D01*
X115454000Y-104470200D01*
X115198000Y-104470200D01*
X115129879Y-104450198D01*
X115083386Y-104396542D01*
X115072000Y-104344200D01*
X115072000Y-102899302D01*
X115068082Y-102885958D01*
X115053806Y-102883971D01*
X115015324Y-102889860D01*
X115005288Y-102892251D01*
X114802868Y-102958412D01*
X114793359Y-102962409D01*
X114604463Y-103060742D01*
X114595738Y-103066236D01*
X114425433Y-103194105D01*
X114417726Y-103200948D01*
X114340478Y-103281784D01*
X114278954Y-103317214D01*
X114208042Y-103313757D01*
X114150255Y-103272511D01*
X114131402Y-103238963D01*
X114089767Y-103127903D01*
X114086615Y-103119495D01*
X113999261Y-103002939D01*
X113882705Y-102915585D01*
X113746316Y-102864455D01*
X113684134Y-102857700D01*
X111887866Y-102857700D01*
X111825684Y-102864455D01*
X111689295Y-102915585D01*
X111572739Y-103002939D01*
X111485385Y-103119495D01*
X111434255Y-103255884D01*
X111427500Y-103318066D01*
X111427500Y-105114334D01*
X111434255Y-105176516D01*
X111485385Y-105312905D01*
X111538392Y-105383632D01*
X111540343Y-105386235D01*
X111565191Y-105452741D01*
X111550138Y-105522124D01*
X111499964Y-105572354D01*
X111439517Y-105587800D01*
X106214400Y-105587800D01*
X106146279Y-105567798D01*
X106099786Y-105514142D01*
X106089682Y-105443868D01*
X106119176Y-105379288D01*
X106141232Y-105359221D01*
X106209127Y-105310792D01*
X106217000Y-105304139D01*
X106367852Y-105153812D01*
X106374530Y-105145965D01*
X106498803Y-104973020D01*
X106504113Y-104964183D01*
X106598470Y-104773267D01*
X106602269Y-104763672D01*
X106664177Y-104559910D01*
X106666355Y-104549837D01*
X106667786Y-104538962D01*
X106665575Y-104524778D01*
X106652417Y-104521000D01*
X105205800Y-104521000D01*
X105137679Y-104500998D01*
X105091186Y-104447342D01*
X105079800Y-104395000D01*
X105079800Y-103994885D01*
X105587800Y-103994885D01*
X105592275Y-104010124D01*
X105593665Y-104011329D01*
X105601348Y-104013000D01*
X106652144Y-104013000D01*
X106665675Y-104009027D01*
X106666980Y-103999947D01*
X106625014Y-103832875D01*
X106621694Y-103823124D01*
X106536772Y-103627814D01*
X106531905Y-103618739D01*
X106416226Y-103439926D01*
X106409936Y-103431757D01*
X106266606Y-103274240D01*
X106259073Y-103267215D01*
X106091939Y-103135222D01*
X106083352Y-103129517D01*
X105896917Y-103026599D01*
X105887505Y-103022369D01*
X105686759Y-102951280D01*
X105676788Y-102948646D01*
X105605637Y-102935972D01*
X105592340Y-102937432D01*
X105587800Y-102951989D01*
X105587800Y-103994885D01*
X105079800Y-103994885D01*
X105079800Y-102950102D01*
X105075882Y-102936758D01*
X105061606Y-102934771D01*
X105023124Y-102940660D01*
X105013088Y-102943051D01*
X104810668Y-103009212D01*
X104801159Y-103013209D01*
X104612263Y-103111542D01*
X104603538Y-103117036D01*
X104433233Y-103244905D01*
X104425526Y-103251748D01*
X104278390Y-103405717D01*
X104271909Y-103413722D01*
X104167298Y-103567074D01*
X104112387Y-103612076D01*
X104041862Y-103620247D01*
X103978115Y-103588993D01*
X103957418Y-103564509D01*
X103876622Y-103439617D01*
X103876620Y-103439614D01*
X103873814Y-103435277D01*
X103723470Y-103270051D01*
X103719419Y-103266852D01*
X103719415Y-103266848D01*
X103552214Y-103134800D01*
X103552210Y-103134798D01*
X103548159Y-103131598D01*
X103541466Y-103127903D01*
X103461935Y-103084000D01*
X103352589Y-103023638D01*
X103347720Y-103021914D01*
X103347716Y-103021912D01*
X103146887Y-102950795D01*
X103146883Y-102950794D01*
X103142012Y-102949069D01*
X103136919Y-102948162D01*
X103136916Y-102948161D01*
X102927173Y-102910800D01*
X102927167Y-102910799D01*
X102922084Y-102909894D01*
X102848252Y-102908992D01*
X102703881Y-102907228D01*
X102703879Y-102907228D01*
X102698711Y-102907165D01*
X102477891Y-102940955D01*
X102265556Y-103010357D01*
X102067407Y-103113507D01*
X102063274Y-103116610D01*
X102063271Y-103116612D01*
X101900315Y-103238963D01*
X101888765Y-103247635D01*
X101885193Y-103251373D01*
X101757996Y-103384477D01*
X101734429Y-103409138D01*
X101627001Y-103566621D01*
X101572093Y-103611621D01*
X101501568Y-103619792D01*
X101437821Y-103588538D01*
X101417124Y-103564054D01*
X101336622Y-103439617D01*
X101336620Y-103439614D01*
X101333814Y-103435277D01*
X101183470Y-103270051D01*
X101179419Y-103266852D01*
X101179415Y-103266848D01*
X101012214Y-103134800D01*
X101012210Y-103134798D01*
X101008159Y-103131598D01*
X101001466Y-103127903D01*
X100921935Y-103084000D01*
X100812589Y-103023638D01*
X100807720Y-103021914D01*
X100807716Y-103021912D01*
X100606887Y-102950795D01*
X100606883Y-102950794D01*
X100602012Y-102949069D01*
X100596919Y-102948162D01*
X100596916Y-102948161D01*
X100387173Y-102910800D01*
X100387167Y-102910799D01*
X100382084Y-102909894D01*
X100308252Y-102908992D01*
X100163881Y-102907228D01*
X100163879Y-102907228D01*
X100158711Y-102907165D01*
X99937891Y-102940955D01*
X99725556Y-103010357D01*
X99527407Y-103113507D01*
X99523274Y-103116610D01*
X99523271Y-103116612D01*
X99360315Y-103238963D01*
X99348765Y-103247635D01*
X99345193Y-103251373D01*
X99217996Y-103384477D01*
X99194429Y-103409138D01*
X99087001Y-103566621D01*
X99032093Y-103611621D01*
X98961568Y-103619792D01*
X98897821Y-103588538D01*
X98877124Y-103564054D01*
X98796622Y-103439617D01*
X98796620Y-103439614D01*
X98793814Y-103435277D01*
X98643470Y-103270051D01*
X98639419Y-103266852D01*
X98639415Y-103266848D01*
X98472214Y-103134800D01*
X98472210Y-103134798D01*
X98468159Y-103131598D01*
X98461466Y-103127903D01*
X98381935Y-103084000D01*
X98272589Y-103023638D01*
X98267720Y-103021914D01*
X98267716Y-103021912D01*
X98066887Y-102950795D01*
X98066883Y-102950794D01*
X98062012Y-102949069D01*
X98056919Y-102948162D01*
X98056916Y-102948161D01*
X97847173Y-102910800D01*
X97847167Y-102910799D01*
X97842084Y-102909894D01*
X97768252Y-102908992D01*
X97623881Y-102907228D01*
X97623879Y-102907228D01*
X97618711Y-102907165D01*
X97397891Y-102940955D01*
X97185556Y-103010357D01*
X96987407Y-103113507D01*
X96983274Y-103116610D01*
X96983271Y-103116612D01*
X96820315Y-103238963D01*
X96808765Y-103247635D01*
X96805193Y-103251373D01*
X96677996Y-103384477D01*
X96654429Y-103409138D01*
X96547001Y-103566621D01*
X96492093Y-103611621D01*
X96421568Y-103619792D01*
X96357821Y-103588538D01*
X96337124Y-103564054D01*
X96256622Y-103439617D01*
X96256620Y-103439614D01*
X96253814Y-103435277D01*
X96103470Y-103270051D01*
X96099419Y-103266852D01*
X96099415Y-103266848D01*
X95932214Y-103134800D01*
X95932210Y-103134798D01*
X95928159Y-103131598D01*
X95921466Y-103127903D01*
X95841935Y-103084000D01*
X95732589Y-103023638D01*
X95727720Y-103021914D01*
X95727716Y-103021912D01*
X95526887Y-102950795D01*
X95526883Y-102950794D01*
X95522012Y-102949069D01*
X95516919Y-102948162D01*
X95516916Y-102948161D01*
X95307173Y-102910800D01*
X95307167Y-102910799D01*
X95302084Y-102909894D01*
X95228252Y-102908992D01*
X95083881Y-102907228D01*
X95083879Y-102907228D01*
X95078711Y-102907165D01*
X94857891Y-102940955D01*
X94645556Y-103010357D01*
X94447407Y-103113507D01*
X94443274Y-103116610D01*
X94443271Y-103116612D01*
X94280315Y-103238963D01*
X94268765Y-103247635D01*
X94265193Y-103251373D01*
X94137996Y-103384477D01*
X94114429Y-103409138D01*
X94007001Y-103566621D01*
X93952093Y-103611621D01*
X93881568Y-103619792D01*
X93817821Y-103588538D01*
X93797124Y-103564054D01*
X93716622Y-103439617D01*
X93716620Y-103439614D01*
X93713814Y-103435277D01*
X93563470Y-103270051D01*
X93559419Y-103266852D01*
X93559415Y-103266848D01*
X93392214Y-103134800D01*
X93392210Y-103134798D01*
X93388159Y-103131598D01*
X93381466Y-103127903D01*
X93301935Y-103084000D01*
X93192589Y-103023638D01*
X93187720Y-103021914D01*
X93187716Y-103021912D01*
X92986887Y-102950795D01*
X92986883Y-102950794D01*
X92982012Y-102949069D01*
X92976919Y-102948162D01*
X92976916Y-102948161D01*
X92767173Y-102910800D01*
X92767167Y-102910799D01*
X92762084Y-102909894D01*
X92688252Y-102908992D01*
X92543881Y-102907228D01*
X92543879Y-102907228D01*
X92538711Y-102907165D01*
X92317891Y-102940955D01*
X92105556Y-103010357D01*
X91907407Y-103113507D01*
X91903274Y-103116610D01*
X91903271Y-103116612D01*
X91740315Y-103238963D01*
X91728765Y-103247635D01*
X91725193Y-103251373D01*
X91597996Y-103384477D01*
X91574429Y-103409138D01*
X91467001Y-103566621D01*
X91412093Y-103611621D01*
X91341568Y-103619792D01*
X91277821Y-103588538D01*
X91257124Y-103564054D01*
X91176622Y-103439617D01*
X91176620Y-103439614D01*
X91173814Y-103435277D01*
X91023470Y-103270051D01*
X91019419Y-103266852D01*
X91019415Y-103266848D01*
X90852214Y-103134800D01*
X90852210Y-103134798D01*
X90848159Y-103131598D01*
X90841466Y-103127903D01*
X90761935Y-103084000D01*
X90652589Y-103023638D01*
X90647720Y-103021914D01*
X90647716Y-103021912D01*
X90446887Y-102950795D01*
X90446883Y-102950794D01*
X90442012Y-102949069D01*
X90436919Y-102948162D01*
X90436916Y-102948161D01*
X90227173Y-102910800D01*
X90227167Y-102910799D01*
X90222084Y-102909894D01*
X90148252Y-102908992D01*
X90003881Y-102907228D01*
X90003879Y-102907228D01*
X89998711Y-102907165D01*
X89777891Y-102940955D01*
X89565556Y-103010357D01*
X89367407Y-103113507D01*
X89363274Y-103116610D01*
X89363271Y-103116612D01*
X89200315Y-103238963D01*
X89188765Y-103247635D01*
X89185193Y-103251373D01*
X89057996Y-103384477D01*
X89034429Y-103409138D01*
X88927001Y-103566621D01*
X88872093Y-103611621D01*
X88801568Y-103619792D01*
X88737821Y-103588538D01*
X88717124Y-103564054D01*
X88636622Y-103439617D01*
X88636620Y-103439614D01*
X88633814Y-103435277D01*
X88483470Y-103270051D01*
X88479419Y-103266852D01*
X88479415Y-103266848D01*
X88312214Y-103134800D01*
X88312210Y-103134798D01*
X88308159Y-103131598D01*
X88301466Y-103127903D01*
X88221935Y-103084000D01*
X88112589Y-103023638D01*
X88107720Y-103021914D01*
X88107716Y-103021912D01*
X87906887Y-102950795D01*
X87906883Y-102950794D01*
X87902012Y-102949069D01*
X87896919Y-102948162D01*
X87896916Y-102948161D01*
X87687173Y-102910800D01*
X87687167Y-102910799D01*
X87682084Y-102909894D01*
X87608252Y-102908992D01*
X87463881Y-102907228D01*
X87463879Y-102907228D01*
X87458711Y-102907165D01*
X87237891Y-102940955D01*
X87025556Y-103010357D01*
X86827407Y-103113507D01*
X86823274Y-103116610D01*
X86823271Y-103116612D01*
X86660315Y-103238963D01*
X86648765Y-103247635D01*
X86583833Y-103315583D01*
X86568083Y-103332064D01*
X86506559Y-103367494D01*
X86435646Y-103364037D01*
X86377860Y-103322791D01*
X86359007Y-103289243D01*
X86317567Y-103178703D01*
X86314415Y-103170295D01*
X86227061Y-103053739D01*
X86110505Y-102966385D01*
X85974116Y-102915255D01*
X85911934Y-102908500D01*
X84115666Y-102908500D01*
X84053484Y-102915255D01*
X83917095Y-102966385D01*
X83800539Y-103053739D01*
X83713185Y-103170295D01*
X83662055Y-103306684D01*
X83655300Y-103368866D01*
X83655300Y-105165134D01*
X83662055Y-105227316D01*
X83713185Y-105363705D01*
X83718571Y-105370891D01*
X83730071Y-105386236D01*
X83754918Y-105452742D01*
X83739865Y-105522125D01*
X83689690Y-105572354D01*
X83629244Y-105587800D01*
X82793066Y-105587800D01*
X82724945Y-105567798D01*
X82678452Y-105514142D01*
X82668348Y-105443868D01*
X82671506Y-105428647D01*
X82723864Y-105236667D01*
X82967537Y-104343200D01*
X82943952Y-104013000D01*
X82867236Y-102938984D01*
X82865937Y-102920800D01*
X81697537Y-101371400D01*
X78891400Y-101371400D01*
X78823279Y-101351398D01*
X78776786Y-101297742D01*
X78765400Y-101245400D01*
X78765400Y-97637600D01*
X96673296Y-97637600D01*
X96673986Y-97644165D01*
X96688694Y-97784100D01*
X96693258Y-97827528D01*
X96752273Y-98009156D01*
X96755576Y-98014878D01*
X96755577Y-98014879D01*
X96772998Y-98045052D01*
X96847760Y-98174544D01*
X96975547Y-98316466D01*
X97130048Y-98428718D01*
X97136076Y-98431402D01*
X97136078Y-98431403D01*
X97195812Y-98457998D01*
X97304512Y-98506394D01*
X97397912Y-98526247D01*
X97484856Y-98544728D01*
X97484861Y-98544728D01*
X97491313Y-98546100D01*
X97682287Y-98546100D01*
X97688739Y-98544728D01*
X97688744Y-98544728D01*
X97775688Y-98526247D01*
X97869088Y-98506394D01*
X97977788Y-98457998D01*
X98037522Y-98431403D01*
X98037524Y-98431402D01*
X98043552Y-98428718D01*
X98198053Y-98316466D01*
X98325840Y-98174544D01*
X98400602Y-98045052D01*
X98418023Y-98014879D01*
X98418024Y-98014878D01*
X98421327Y-98009156D01*
X98480342Y-97827528D01*
X98484907Y-97784100D01*
X98499614Y-97644165D01*
X98500304Y-97637600D01*
X98493272Y-97570698D01*
X98481032Y-97454235D01*
X98481032Y-97454233D01*
X98480342Y-97447672D01*
X98421327Y-97266044D01*
X98388079Y-97208456D01*
X98335459Y-97117317D01*
X98325840Y-97100656D01*
X98299864Y-97071806D01*
X98202475Y-96963645D01*
X98202474Y-96963644D01*
X98198053Y-96958734D01*
X98083212Y-96875297D01*
X98048894Y-96850363D01*
X98048893Y-96850362D01*
X98043552Y-96846482D01*
X98037524Y-96843798D01*
X98037522Y-96843797D01*
X98022031Y-96836900D01*
X100203896Y-96836900D01*
X100204586Y-96843465D01*
X100218432Y-96975199D01*
X100223858Y-97026828D01*
X100282873Y-97208456D01*
X100286176Y-97214178D01*
X100286177Y-97214179D01*
X100319750Y-97272329D01*
X100378360Y-97373844D01*
X100382778Y-97378751D01*
X100382779Y-97378752D01*
X100501725Y-97510855D01*
X100506147Y-97515766D01*
X100660648Y-97628018D01*
X100666676Y-97630702D01*
X100666678Y-97630703D01*
X100819138Y-97698582D01*
X100835112Y-97705694D01*
X100928513Y-97725547D01*
X101015456Y-97744028D01*
X101015461Y-97744028D01*
X101021913Y-97745400D01*
X101212887Y-97745400D01*
X101219339Y-97744028D01*
X101219344Y-97744028D01*
X101306287Y-97725547D01*
X101399688Y-97705694D01*
X101415662Y-97698582D01*
X101568122Y-97630703D01*
X101568124Y-97630702D01*
X101574152Y-97628018D01*
X101728653Y-97515766D01*
X101733075Y-97510855D01*
X101852021Y-97378752D01*
X101852022Y-97378751D01*
X101856440Y-97373844D01*
X101915050Y-97272329D01*
X101948623Y-97214179D01*
X101948624Y-97214178D01*
X101951927Y-97208456D01*
X102010942Y-97026828D01*
X102016369Y-96975199D01*
X102026837Y-96875600D01*
X110541696Y-96875600D01*
X110542386Y-96882165D01*
X110559109Y-97041272D01*
X110561658Y-97065528D01*
X110620673Y-97247156D01*
X110623976Y-97252878D01*
X110623977Y-97252879D01*
X110646692Y-97292223D01*
X110716160Y-97412544D01*
X110720578Y-97417451D01*
X110720579Y-97417452D01*
X110805793Y-97512092D01*
X110843947Y-97554466D01*
X110901762Y-97596471D01*
X110987915Y-97659065D01*
X110998448Y-97666718D01*
X111004476Y-97669402D01*
X111004478Y-97669403D01*
X111166881Y-97741709D01*
X111172912Y-97744394D01*
X111266313Y-97764247D01*
X111353256Y-97782728D01*
X111353261Y-97782728D01*
X111359713Y-97784100D01*
X111550687Y-97784100D01*
X111557139Y-97782728D01*
X111557144Y-97782728D01*
X111644087Y-97764247D01*
X111737488Y-97744394D01*
X111743519Y-97741709D01*
X111905922Y-97669403D01*
X111905924Y-97669402D01*
X111911952Y-97666718D01*
X111922486Y-97659065D01*
X112008638Y-97596471D01*
X112066453Y-97554466D01*
X112104607Y-97512092D01*
X112189821Y-97417452D01*
X112189822Y-97417451D01*
X112194240Y-97412544D01*
X112263708Y-97292223D01*
X112286423Y-97252879D01*
X112286424Y-97252878D01*
X112289727Y-97247156D01*
X112303186Y-97205735D01*
X112343259Y-97147131D01*
X112408655Y-97119494D01*
X112478612Y-97131601D01*
X112530918Y-97179607D01*
X112548328Y-97231502D01*
X112568258Y-97421128D01*
X112627273Y-97602756D01*
X112630576Y-97608478D01*
X112630577Y-97608479D01*
X112656238Y-97652924D01*
X112722760Y-97768144D01*
X112727178Y-97773051D01*
X112727179Y-97773052D01*
X112846125Y-97905155D01*
X112850547Y-97910066D01*
X112881689Y-97932692D01*
X112978282Y-98002871D01*
X113005048Y-98022318D01*
X113011076Y-98025002D01*
X113011078Y-98025003D01*
X113167336Y-98094573D01*
X113179512Y-98099994D01*
X113272912Y-98119847D01*
X113359856Y-98138328D01*
X113359861Y-98138328D01*
X113366313Y-98139700D01*
X113557287Y-98139700D01*
X113563739Y-98138328D01*
X113563744Y-98138328D01*
X113650687Y-98119847D01*
X113744088Y-98099994D01*
X113756264Y-98094573D01*
X113912522Y-98025003D01*
X113912524Y-98025002D01*
X113918552Y-98022318D01*
X113945319Y-98002871D01*
X114041911Y-97932692D01*
X114073053Y-97910066D01*
X114077475Y-97905155D01*
X114196421Y-97773052D01*
X114196422Y-97773051D01*
X114200840Y-97768144D01*
X114267362Y-97652924D01*
X114293023Y-97608479D01*
X114293024Y-97608478D01*
X114296327Y-97602756D01*
X114298369Y-97596471D01*
X114301053Y-97590443D01*
X114302255Y-97590978D01*
X114338323Y-97538227D01*
X114403719Y-97510589D01*
X114473676Y-97522694D01*
X114525983Y-97570698D01*
X114543643Y-97625223D01*
X114544683Y-97637600D01*
X114546485Y-97659065D01*
X114559856Y-97705694D01*
X114589355Y-97808569D01*
X114598297Y-97839755D01*
X114601112Y-97845232D01*
X114601113Y-97845235D01*
X114681403Y-98001463D01*
X114684218Y-98006940D01*
X114688041Y-98011764D01*
X114688044Y-98011768D01*
X114755844Y-98097309D01*
X114800977Y-98154252D01*
X114805671Y-98158247D01*
X114912207Y-98248916D01*
X114944124Y-98276080D01*
X114949502Y-98279086D01*
X114949504Y-98279087D01*
X115016386Y-98316466D01*
X115108209Y-98367784D01*
X115286980Y-98425870D01*
X115473630Y-98448127D01*
X115479765Y-98447655D01*
X115479767Y-98447655D01*
X115654905Y-98434179D01*
X115654909Y-98434178D01*
X115661047Y-98433706D01*
X115746178Y-98409937D01*
X115836150Y-98384816D01*
X115836153Y-98384815D01*
X115842094Y-98383156D01*
X115847598Y-98380376D01*
X115847600Y-98380375D01*
X116004374Y-98301183D01*
X116004376Y-98301182D01*
X116009875Y-98298404D01*
X116157999Y-98182677D01*
X116171767Y-98166727D01*
X116276794Y-98045052D01*
X116276795Y-98045050D01*
X116280823Y-98040384D01*
X116373670Y-97876944D01*
X116433003Y-97698582D01*
X116456562Y-97512092D01*
X116456938Y-97485200D01*
X116438595Y-97298126D01*
X116430807Y-97272329D01*
X116402812Y-97179607D01*
X116384265Y-97118177D01*
X116296018Y-96952208D01*
X116177215Y-96806540D01*
X116085265Y-96730472D01*
X116037129Y-96690650D01*
X116037124Y-96690647D01*
X116032380Y-96686722D01*
X116026961Y-96683792D01*
X116026958Y-96683790D01*
X115947252Y-96640694D01*
X115867031Y-96597319D01*
X115687466Y-96541734D01*
X115681341Y-96541090D01*
X115681340Y-96541090D01*
X115506652Y-96522729D01*
X115506651Y-96522729D01*
X115500524Y-96522085D01*
X115423473Y-96529097D01*
X115319465Y-96538563D01*
X115319462Y-96538564D01*
X115313326Y-96539122D01*
X115307420Y-96540860D01*
X115307416Y-96540861D01*
X115181195Y-96578010D01*
X115133002Y-96592194D01*
X114966421Y-96679280D01*
X114819928Y-96797064D01*
X114815970Y-96801782D01*
X114815967Y-96801784D01*
X114748520Y-96882165D01*
X114699102Y-96941059D01*
X114696138Y-96946451D01*
X114696135Y-96946455D01*
X114640401Y-97047835D01*
X114608546Y-97105780D01*
X114606685Y-97111646D01*
X114606683Y-97111651D01*
X114605818Y-97114379D01*
X114604983Y-97115619D01*
X114604255Y-97117317D01*
X114603932Y-97117179D01*
X114566155Y-97173263D01*
X114500954Y-97201356D01*
X114430914Y-97189739D01*
X114378273Y-97142100D01*
X114360406Y-97089452D01*
X114356032Y-97047835D01*
X114356032Y-97047833D01*
X114355342Y-97041272D01*
X114296327Y-96859644D01*
X114279406Y-96830335D01*
X114245432Y-96771491D01*
X114200840Y-96694256D01*
X114194057Y-96686722D01*
X114077475Y-96557245D01*
X114077474Y-96557244D01*
X114073053Y-96552334D01*
X113918552Y-96440082D01*
X113912524Y-96437398D01*
X113912522Y-96437397D01*
X113750119Y-96365091D01*
X113750118Y-96365091D01*
X113744088Y-96362406D01*
X113632354Y-96338656D01*
X113563744Y-96324072D01*
X113563739Y-96324072D01*
X113557287Y-96322700D01*
X113366313Y-96322700D01*
X113359861Y-96324072D01*
X113359856Y-96324072D01*
X113291246Y-96338656D01*
X113179512Y-96362406D01*
X113173482Y-96365091D01*
X113173481Y-96365091D01*
X113011078Y-96437397D01*
X113011076Y-96437398D01*
X113005048Y-96440082D01*
X112850547Y-96552334D01*
X112846126Y-96557244D01*
X112846125Y-96557245D01*
X112729544Y-96686722D01*
X112722760Y-96694256D01*
X112678168Y-96771491D01*
X112644195Y-96830335D01*
X112627273Y-96859644D01*
X112619956Y-96882165D01*
X112613815Y-96901064D01*
X112573741Y-96959669D01*
X112508345Y-96987306D01*
X112438388Y-96975199D01*
X112386082Y-96927193D01*
X112368672Y-96875297D01*
X112367688Y-96865929D01*
X112353451Y-96730472D01*
X112349432Y-96692235D01*
X112349432Y-96692233D01*
X112348742Y-96685672D01*
X112289727Y-96504044D01*
X112267384Y-96465344D01*
X112197541Y-96344374D01*
X112194240Y-96338656D01*
X112159395Y-96299956D01*
X112070875Y-96201645D01*
X112070874Y-96201644D01*
X112066453Y-96196734D01*
X111948251Y-96110855D01*
X111917294Y-96088363D01*
X111917293Y-96088362D01*
X111911952Y-96084482D01*
X111905924Y-96081798D01*
X111905922Y-96081797D01*
X111743519Y-96009491D01*
X111743518Y-96009491D01*
X111737488Y-96006806D01*
X111640013Y-95986087D01*
X111557144Y-95968472D01*
X111557139Y-95968472D01*
X111550687Y-95967100D01*
X111359713Y-95967100D01*
X111353261Y-95968472D01*
X111353256Y-95968472D01*
X111270387Y-95986087D01*
X111172912Y-96006806D01*
X111166882Y-96009491D01*
X111166881Y-96009491D01*
X111004478Y-96081797D01*
X111004476Y-96081798D01*
X110998448Y-96084482D01*
X110993107Y-96088362D01*
X110993106Y-96088363D01*
X110962149Y-96110855D01*
X110843947Y-96196734D01*
X110839526Y-96201644D01*
X110839525Y-96201645D01*
X110751006Y-96299956D01*
X110716160Y-96338656D01*
X110712859Y-96344374D01*
X110643017Y-96465344D01*
X110620673Y-96504044D01*
X110561658Y-96685672D01*
X110560968Y-96692233D01*
X110560968Y-96692235D01*
X110552920Y-96768806D01*
X110541696Y-96875600D01*
X102026837Y-96875600D01*
X102030214Y-96843465D01*
X102030904Y-96836900D01*
X102015120Y-96686722D01*
X102011632Y-96653535D01*
X102011632Y-96653533D01*
X102010942Y-96646972D01*
X101951927Y-96465344D01*
X101856440Y-96299956D01*
X101767921Y-96201645D01*
X101733075Y-96162945D01*
X101733074Y-96162944D01*
X101728653Y-96158034D01*
X101574152Y-96045782D01*
X101568124Y-96043098D01*
X101568122Y-96043097D01*
X101405719Y-95970791D01*
X101405718Y-95970791D01*
X101399688Y-95968106D01*
X101306288Y-95948253D01*
X101219344Y-95929772D01*
X101219339Y-95929772D01*
X101212887Y-95928400D01*
X101021913Y-95928400D01*
X101015461Y-95929772D01*
X101015456Y-95929772D01*
X100928512Y-95948253D01*
X100835112Y-95968106D01*
X100829082Y-95970791D01*
X100829081Y-95970791D01*
X100666678Y-96043097D01*
X100666676Y-96043098D01*
X100660648Y-96045782D01*
X100506147Y-96158034D01*
X100501726Y-96162944D01*
X100501725Y-96162945D01*
X100466880Y-96201645D01*
X100378360Y-96299956D01*
X100282873Y-96465344D01*
X100223858Y-96646972D01*
X100223168Y-96653533D01*
X100223168Y-96653535D01*
X100219680Y-96686722D01*
X100203896Y-96836900D01*
X98022031Y-96836900D01*
X97875119Y-96771491D01*
X97875118Y-96771491D01*
X97869088Y-96768806D01*
X97775688Y-96748953D01*
X97688744Y-96730472D01*
X97688739Y-96730472D01*
X97682287Y-96729100D01*
X97491313Y-96729100D01*
X97484861Y-96730472D01*
X97484856Y-96730472D01*
X97397912Y-96748953D01*
X97304512Y-96768806D01*
X97298482Y-96771491D01*
X97298481Y-96771491D01*
X97136078Y-96843797D01*
X97136076Y-96843798D01*
X97130048Y-96846482D01*
X97124707Y-96850362D01*
X97124706Y-96850363D01*
X97090388Y-96875297D01*
X96975547Y-96958734D01*
X96971126Y-96963644D01*
X96971125Y-96963645D01*
X96873737Y-97071806D01*
X96847760Y-97100656D01*
X96838141Y-97117317D01*
X96785522Y-97208456D01*
X96752273Y-97266044D01*
X96693258Y-97447672D01*
X96692568Y-97454233D01*
X96692568Y-97454235D01*
X96680328Y-97570698D01*
X96673296Y-97637600D01*
X78765400Y-97637600D01*
X78765400Y-95185752D01*
X82831556Y-95185752D01*
X82832072Y-95191896D01*
X82846338Y-95361782D01*
X82847285Y-95373065D01*
X82873191Y-95463410D01*
X82878828Y-95483067D01*
X82899097Y-95553755D01*
X82901912Y-95559232D01*
X82901913Y-95559235D01*
X82976098Y-95703584D01*
X82985018Y-95720940D01*
X82988841Y-95725764D01*
X82988844Y-95725768D01*
X83080346Y-95841213D01*
X83101777Y-95868252D01*
X83106471Y-95872247D01*
X83222260Y-95970791D01*
X83244924Y-95990080D01*
X83250302Y-95993086D01*
X83250304Y-95993087D01*
X83312733Y-96027977D01*
X83409009Y-96081784D01*
X83587780Y-96139870D01*
X83774430Y-96162127D01*
X83780565Y-96161655D01*
X83780567Y-96161655D01*
X83955705Y-96148179D01*
X83955709Y-96148178D01*
X83961847Y-96147706D01*
X84046978Y-96123937D01*
X84136950Y-96098816D01*
X84136953Y-96098815D01*
X84142894Y-96097156D01*
X84148398Y-96094376D01*
X84148400Y-96094375D01*
X84305174Y-96015183D01*
X84305176Y-96015182D01*
X84310675Y-96012404D01*
X84458799Y-95896677D01*
X84462825Y-95892013D01*
X84577594Y-95759052D01*
X84577595Y-95759050D01*
X84581623Y-95754384D01*
X84674470Y-95590944D01*
X84733803Y-95412582D01*
X84757362Y-95226092D01*
X84757738Y-95199200D01*
X84751438Y-95134952D01*
X111889156Y-95134952D01*
X111904885Y-95322265D01*
X111956697Y-95502955D01*
X111959512Y-95508432D01*
X111959513Y-95508435D01*
X112039803Y-95664663D01*
X112042618Y-95670140D01*
X112046441Y-95674964D01*
X112046444Y-95674968D01*
X112113089Y-95759052D01*
X112159377Y-95817452D01*
X112164071Y-95821447D01*
X112246986Y-95892013D01*
X112302524Y-95939280D01*
X112307902Y-95942286D01*
X112307904Y-95942287D01*
X112351647Y-95966734D01*
X112466609Y-96030984D01*
X112645380Y-96089070D01*
X112832030Y-96111327D01*
X112838165Y-96110855D01*
X112838167Y-96110855D01*
X113013305Y-96097379D01*
X113013309Y-96097378D01*
X113019447Y-96096906D01*
X113104578Y-96073137D01*
X113194550Y-96048016D01*
X113194553Y-96048015D01*
X113200494Y-96046356D01*
X113205998Y-96043576D01*
X113206000Y-96043575D01*
X113362774Y-95964383D01*
X113362776Y-95964382D01*
X113368275Y-95961604D01*
X113493944Y-95863421D01*
X113511543Y-95849671D01*
X113516399Y-95845877D01*
X113520425Y-95841213D01*
X113635194Y-95708252D01*
X113635195Y-95708250D01*
X113639223Y-95703584D01*
X113732070Y-95540144D01*
X113791403Y-95361782D01*
X113814962Y-95175292D01*
X113815338Y-95148400D01*
X113796995Y-94961326D01*
X113742665Y-94781377D01*
X113654418Y-94615408D01*
X113535615Y-94469740D01*
X113452187Y-94400722D01*
X113395529Y-94353850D01*
X113395524Y-94353847D01*
X113390780Y-94349922D01*
X113385361Y-94346992D01*
X113385358Y-94346990D01*
X113306690Y-94304455D01*
X113225431Y-94260519D01*
X113045866Y-94204934D01*
X113039741Y-94204290D01*
X113039740Y-94204290D01*
X112865052Y-94185929D01*
X112865051Y-94185929D01*
X112858924Y-94185285D01*
X112788965Y-94191652D01*
X112677865Y-94201763D01*
X112677862Y-94201764D01*
X112671726Y-94202322D01*
X112665820Y-94204060D01*
X112665816Y-94204061D01*
X112532478Y-94243305D01*
X112491402Y-94255394D01*
X112324821Y-94342480D01*
X112178328Y-94460264D01*
X112174370Y-94464982D01*
X112174367Y-94464984D01*
X112097217Y-94556928D01*
X112057502Y-94604259D01*
X112054538Y-94609651D01*
X112054535Y-94609655D01*
X111999634Y-94709521D01*
X111966946Y-94768980D01*
X111965085Y-94774847D01*
X111965084Y-94774849D01*
X111950831Y-94819780D01*
X111910109Y-94948152D01*
X111889156Y-95134952D01*
X84751438Y-95134952D01*
X84739395Y-95012126D01*
X84725910Y-94967460D01*
X84686846Y-94838077D01*
X84685065Y-94832177D01*
X84596818Y-94666208D01*
X84478015Y-94520540D01*
X84411864Y-94465815D01*
X84337929Y-94404650D01*
X84337924Y-94404647D01*
X84333180Y-94400722D01*
X84327761Y-94397792D01*
X84327758Y-94397790D01*
X84232605Y-94346342D01*
X84167831Y-94311319D01*
X83988266Y-94255734D01*
X83982141Y-94255090D01*
X83982140Y-94255090D01*
X83807452Y-94236729D01*
X83807451Y-94236729D01*
X83801324Y-94236085D01*
X83724273Y-94243097D01*
X83620265Y-94252563D01*
X83620262Y-94252564D01*
X83614126Y-94253122D01*
X83608220Y-94254860D01*
X83608216Y-94254861D01*
X83474878Y-94294105D01*
X83433802Y-94306194D01*
X83267221Y-94393280D01*
X83120728Y-94511064D01*
X83116770Y-94515782D01*
X83116767Y-94515784D01*
X83081092Y-94558300D01*
X82999902Y-94655059D01*
X82996938Y-94660451D01*
X82996935Y-94660455D01*
X82940239Y-94763585D01*
X82909346Y-94819780D01*
X82852509Y-94998952D01*
X82831556Y-95185752D01*
X78765400Y-95185752D01*
X78765400Y-93649800D01*
X108369396Y-93649800D01*
X108389358Y-93839728D01*
X108448373Y-94021356D01*
X108543860Y-94186744D01*
X108548278Y-94191651D01*
X108548279Y-94191652D01*
X108649847Y-94304455D01*
X108671647Y-94328666D01*
X108826148Y-94440918D01*
X108832176Y-94443602D01*
X108832178Y-94443603D01*
X108994581Y-94515909D01*
X109000612Y-94518594D01*
X109094012Y-94538447D01*
X109180956Y-94556928D01*
X109180961Y-94556928D01*
X109187413Y-94558300D01*
X109378387Y-94558300D01*
X109384839Y-94556928D01*
X109384844Y-94556928D01*
X109471788Y-94538447D01*
X109565188Y-94518594D01*
X109571219Y-94515909D01*
X109733622Y-94443603D01*
X109733624Y-94443602D01*
X109739652Y-94440918D01*
X109894153Y-94328666D01*
X109915953Y-94304455D01*
X110017521Y-94191652D01*
X110017522Y-94191651D01*
X110021940Y-94186744D01*
X110117427Y-94021356D01*
X110176442Y-93839728D01*
X110196404Y-93649800D01*
X110182770Y-93520077D01*
X110177132Y-93466435D01*
X110177132Y-93466433D01*
X110176442Y-93459872D01*
X110117427Y-93278244D01*
X110021940Y-93112856D01*
X109894153Y-92970934D01*
X109739652Y-92858682D01*
X109733624Y-92855998D01*
X109733622Y-92855997D01*
X109571219Y-92783691D01*
X109571218Y-92783691D01*
X109565188Y-92781006D01*
X109471787Y-92761153D01*
X109384844Y-92742672D01*
X109384839Y-92742672D01*
X109378387Y-92741300D01*
X109187413Y-92741300D01*
X109180961Y-92742672D01*
X109180956Y-92742672D01*
X109094013Y-92761153D01*
X109000612Y-92781006D01*
X108994582Y-92783691D01*
X108994581Y-92783691D01*
X108832178Y-92855997D01*
X108832176Y-92855998D01*
X108826148Y-92858682D01*
X108671647Y-92970934D01*
X108543860Y-93112856D01*
X108448373Y-93278244D01*
X108389358Y-93459872D01*
X108388668Y-93466433D01*
X108388668Y-93466435D01*
X108383030Y-93520077D01*
X108369396Y-93649800D01*
X78765400Y-93649800D01*
X78765400Y-91770200D01*
X106376096Y-91770200D01*
X106376786Y-91776765D01*
X106394463Y-91944949D01*
X106396058Y-91960128D01*
X106455073Y-92141756D01*
X106458376Y-92147478D01*
X106458377Y-92147479D01*
X106468355Y-92164761D01*
X106550560Y-92307144D01*
X106554978Y-92312051D01*
X106554979Y-92312052D01*
X106673925Y-92444155D01*
X106678347Y-92449066D01*
X106832848Y-92561318D01*
X106838876Y-92564002D01*
X106838878Y-92564003D01*
X107001281Y-92636309D01*
X107007312Y-92638994D01*
X107100712Y-92658847D01*
X107187656Y-92677328D01*
X107187661Y-92677328D01*
X107194113Y-92678700D01*
X107385087Y-92678700D01*
X107391539Y-92677328D01*
X107391544Y-92677328D01*
X107478488Y-92658847D01*
X107571888Y-92638994D01*
X107577919Y-92636309D01*
X107740322Y-92564003D01*
X107740324Y-92564002D01*
X107746352Y-92561318D01*
X107900853Y-92449066D01*
X107905275Y-92444155D01*
X108024221Y-92312052D01*
X108024222Y-92312051D01*
X108028640Y-92307144D01*
X108110845Y-92164761D01*
X108120823Y-92147479D01*
X108120824Y-92147478D01*
X108124127Y-92141756D01*
X108183142Y-91960128D01*
X108184738Y-91944949D01*
X108202414Y-91776765D01*
X108203104Y-91770200D01*
X108203490Y-91770241D01*
X108222416Y-91705783D01*
X108276072Y-91659290D01*
X108346346Y-91649186D01*
X108410926Y-91678680D01*
X108441090Y-91724182D01*
X108443647Y-91723043D01*
X108446331Y-91729071D01*
X108448373Y-91735356D01*
X108451676Y-91741078D01*
X108451677Y-91741079D01*
X108481900Y-91793426D01*
X108543860Y-91900744D01*
X108548278Y-91905651D01*
X108548279Y-91905652D01*
X108602982Y-91966406D01*
X108671647Y-92042666D01*
X108690004Y-92056003D01*
X108799382Y-92135471D01*
X108826148Y-92154918D01*
X108832176Y-92157602D01*
X108832178Y-92157603D01*
X108861595Y-92170700D01*
X109000612Y-92232594D01*
X109094013Y-92252447D01*
X109180956Y-92270928D01*
X109180961Y-92270928D01*
X109187413Y-92272300D01*
X109378387Y-92272300D01*
X109384839Y-92270928D01*
X109384844Y-92270928D01*
X109471787Y-92252447D01*
X109565188Y-92232594D01*
X109704205Y-92170700D01*
X109733622Y-92157603D01*
X109733624Y-92157602D01*
X109739652Y-92154918D01*
X109766419Y-92135471D01*
X109875796Y-92056003D01*
X109894153Y-92042666D01*
X109962818Y-91966406D01*
X110017521Y-91905652D01*
X110017522Y-91905651D01*
X110021940Y-91900744D01*
X110083900Y-91793426D01*
X110114123Y-91741079D01*
X110114124Y-91741078D01*
X110117427Y-91735356D01*
X110176442Y-91553728D01*
X110187121Y-91452128D01*
X110195714Y-91370365D01*
X110196404Y-91363800D01*
X110190445Y-91307100D01*
X110177132Y-91180435D01*
X110177132Y-91180433D01*
X110176442Y-91173872D01*
X110117427Y-90992244D01*
X110021940Y-90826856D01*
X109939948Y-90735794D01*
X109898575Y-90689845D01*
X109898574Y-90689844D01*
X109894153Y-90684934D01*
X109761064Y-90588239D01*
X109744994Y-90576563D01*
X109744993Y-90576562D01*
X109739652Y-90572682D01*
X109733624Y-90569998D01*
X109733622Y-90569997D01*
X109571219Y-90497691D01*
X109571218Y-90497691D01*
X109565188Y-90495006D01*
X109470894Y-90474963D01*
X109384844Y-90456672D01*
X109384839Y-90456672D01*
X109378387Y-90455300D01*
X109187413Y-90455300D01*
X109180961Y-90456672D01*
X109180956Y-90456672D01*
X109094906Y-90474963D01*
X109000612Y-90495006D01*
X108994582Y-90497691D01*
X108994581Y-90497691D01*
X108832178Y-90569997D01*
X108832176Y-90569998D01*
X108826148Y-90572682D01*
X108820807Y-90576562D01*
X108820806Y-90576563D01*
X108804736Y-90588239D01*
X108671647Y-90684934D01*
X108667226Y-90689844D01*
X108667225Y-90689845D01*
X108625853Y-90735794D01*
X108543860Y-90826856D01*
X108448373Y-90992244D01*
X108389358Y-91173872D01*
X108388668Y-91180433D01*
X108388668Y-91180435D01*
X108375355Y-91307100D01*
X108369396Y-91363800D01*
X108369010Y-91363759D01*
X108350084Y-91428217D01*
X108296428Y-91474710D01*
X108226154Y-91484814D01*
X108161574Y-91455320D01*
X108131410Y-91409818D01*
X108128853Y-91410957D01*
X108126169Y-91404928D01*
X108124127Y-91398644D01*
X108100220Y-91357235D01*
X108065599Y-91297271D01*
X108028640Y-91233256D01*
X107975171Y-91173872D01*
X107905275Y-91096245D01*
X107905274Y-91096244D01*
X107900853Y-91091334D01*
X107782968Y-91005685D01*
X107751694Y-90982963D01*
X107751693Y-90982962D01*
X107746352Y-90979082D01*
X107740324Y-90976398D01*
X107740322Y-90976397D01*
X107577919Y-90904091D01*
X107577918Y-90904091D01*
X107571888Y-90901406D01*
X107455633Y-90876695D01*
X107391544Y-90863072D01*
X107391539Y-90863072D01*
X107385087Y-90861700D01*
X107194113Y-90861700D01*
X107187661Y-90863072D01*
X107187656Y-90863072D01*
X107123567Y-90876695D01*
X107007312Y-90901406D01*
X107001282Y-90904091D01*
X107001281Y-90904091D01*
X106838878Y-90976397D01*
X106838876Y-90976398D01*
X106832848Y-90979082D01*
X106827507Y-90982962D01*
X106827506Y-90982963D01*
X106796232Y-91005685D01*
X106678347Y-91091334D01*
X106673926Y-91096244D01*
X106673925Y-91096245D01*
X106604030Y-91173872D01*
X106550560Y-91233256D01*
X106513601Y-91297271D01*
X106478981Y-91357235D01*
X106455073Y-91398644D01*
X106396058Y-91580272D01*
X106395368Y-91586833D01*
X106395368Y-91586835D01*
X106385715Y-91678680D01*
X106376096Y-91770200D01*
X78765400Y-91770200D01*
X78765400Y-90398600D01*
X95682696Y-90398600D01*
X95683386Y-90405165D01*
X95701812Y-90580475D01*
X95702658Y-90588528D01*
X95761673Y-90770156D01*
X95857160Y-90935544D01*
X95861578Y-90940451D01*
X95861579Y-90940452D01*
X95979907Y-91071869D01*
X95984947Y-91077466D01*
X96139448Y-91189718D01*
X96145476Y-91192402D01*
X96145478Y-91192403D01*
X96302246Y-91262200D01*
X96313912Y-91267394D01*
X96407313Y-91287247D01*
X96494256Y-91305728D01*
X96494261Y-91305728D01*
X96500713Y-91307100D01*
X96691687Y-91307100D01*
X96698139Y-91305728D01*
X96698144Y-91305728D01*
X96785087Y-91287247D01*
X96878488Y-91267394D01*
X96890154Y-91262200D01*
X97046922Y-91192403D01*
X97046924Y-91192402D01*
X97052952Y-91189718D01*
X97207453Y-91077466D01*
X97212493Y-91071869D01*
X97330821Y-90940452D01*
X97330822Y-90940451D01*
X97335240Y-90935544D01*
X97430727Y-90770156D01*
X97489742Y-90588528D01*
X97490589Y-90580475D01*
X97509014Y-90405165D01*
X97509704Y-90398600D01*
X97503745Y-90341900D01*
X97490432Y-90215235D01*
X97490432Y-90215233D01*
X97489742Y-90208672D01*
X97430727Y-90027044D01*
X97425181Y-90017437D01*
X97344071Y-89876952D01*
X97335240Y-89861656D01*
X97207453Y-89719734D01*
X97052952Y-89607482D01*
X97046924Y-89604798D01*
X97046922Y-89604797D01*
X96947204Y-89560400D01*
X100127696Y-89560400D01*
X100128386Y-89566965D01*
X100144959Y-89724645D01*
X100147658Y-89750328D01*
X100206673Y-89931956D01*
X100302160Y-90097344D01*
X100306578Y-90102251D01*
X100306579Y-90102252D01*
X100339397Y-90138700D01*
X100429947Y-90239266D01*
X100449035Y-90253134D01*
X100569322Y-90340528D01*
X100584448Y-90351518D01*
X100590476Y-90354202D01*
X100590478Y-90354203D01*
X100752881Y-90426509D01*
X100758912Y-90429194D01*
X100852313Y-90449047D01*
X100939256Y-90467528D01*
X100939261Y-90467528D01*
X100945713Y-90468900D01*
X101136687Y-90468900D01*
X101143139Y-90467528D01*
X101143144Y-90467528D01*
X101230087Y-90449047D01*
X101323488Y-90429194D01*
X101329519Y-90426509D01*
X101491922Y-90354203D01*
X101491924Y-90354202D01*
X101497952Y-90351518D01*
X101513079Y-90340528D01*
X101633365Y-90253134D01*
X101652453Y-90239266D01*
X101743003Y-90138700D01*
X101775821Y-90102252D01*
X101775822Y-90102251D01*
X101780240Y-90097344D01*
X101875727Y-89931956D01*
X101934742Y-89750328D01*
X101937442Y-89724645D01*
X101954014Y-89566965D01*
X101954704Y-89560400D01*
X101951646Y-89531306D01*
X101935432Y-89377035D01*
X101935432Y-89377033D01*
X101934742Y-89370472D01*
X101889164Y-89230200D01*
X102997896Y-89230200D01*
X102998586Y-89236765D01*
X103005017Y-89297948D01*
X103017858Y-89420128D01*
X103076873Y-89601756D01*
X103080176Y-89607478D01*
X103080177Y-89607479D01*
X103092952Y-89629606D01*
X103172360Y-89767144D01*
X103176778Y-89772051D01*
X103176779Y-89772052D01*
X103237780Y-89839800D01*
X103300147Y-89909066D01*
X103454648Y-90021318D01*
X103460676Y-90024002D01*
X103460678Y-90024003D01*
X103520082Y-90050451D01*
X103629112Y-90098994D01*
X103722513Y-90118847D01*
X103809456Y-90137328D01*
X103809461Y-90137328D01*
X103815913Y-90138700D01*
X104006887Y-90138700D01*
X104013339Y-90137328D01*
X104013344Y-90137328D01*
X104100287Y-90118847D01*
X104193688Y-90098994D01*
X104302718Y-90050451D01*
X104362122Y-90024003D01*
X104362124Y-90024002D01*
X104368152Y-90021318D01*
X104522653Y-89909066D01*
X104585020Y-89839800D01*
X110414696Y-89839800D01*
X110415386Y-89846365D01*
X110428417Y-89970344D01*
X110434658Y-90029728D01*
X110493673Y-90211356D01*
X110496976Y-90217078D01*
X110496977Y-90217079D01*
X110509787Y-90239266D01*
X110589160Y-90376744D01*
X110593578Y-90381651D01*
X110593579Y-90381652D01*
X110674102Y-90471082D01*
X110716947Y-90518666D01*
X110802021Y-90580476D01*
X110845374Y-90636697D01*
X110851449Y-90707433D01*
X110847795Y-90721339D01*
X110841058Y-90742072D01*
X110840368Y-90748635D01*
X110840367Y-90748642D01*
X110824029Y-90904091D01*
X110821096Y-90932000D01*
X110821786Y-90938565D01*
X110838359Y-91096245D01*
X110841058Y-91121928D01*
X110900073Y-91303556D01*
X110995560Y-91468944D01*
X110999978Y-91473851D01*
X110999979Y-91473852D01*
X111090147Y-91573994D01*
X111123347Y-91610866D01*
X111176090Y-91649186D01*
X111253989Y-91705783D01*
X111277848Y-91723118D01*
X111283876Y-91725802D01*
X111283878Y-91725803D01*
X111435763Y-91793426D01*
X111452312Y-91800794D01*
X111545712Y-91820647D01*
X111632656Y-91839128D01*
X111632661Y-91839128D01*
X111639113Y-91840500D01*
X111830087Y-91840500D01*
X111836539Y-91839128D01*
X111836544Y-91839128D01*
X111923487Y-91820647D01*
X112016888Y-91800794D01*
X112033437Y-91793426D01*
X112185322Y-91725803D01*
X112185324Y-91725802D01*
X112191352Y-91723118D01*
X112215212Y-91705783D01*
X112293110Y-91649186D01*
X112345853Y-91610866D01*
X112379053Y-91573994D01*
X112453961Y-91490800D01*
X117856896Y-91490800D01*
X117857586Y-91497365D01*
X117872523Y-91639479D01*
X117876858Y-91680728D01*
X117935873Y-91862356D01*
X118031360Y-92027744D01*
X118035778Y-92032651D01*
X118035779Y-92032652D01*
X118125562Y-92132366D01*
X118159147Y-92169666D01*
X118242064Y-92229909D01*
X118298522Y-92270928D01*
X118313648Y-92281918D01*
X118319676Y-92284602D01*
X118319678Y-92284603D01*
X118381330Y-92312052D01*
X118488112Y-92359594D01*
X118581512Y-92379447D01*
X118668456Y-92397928D01*
X118668461Y-92397928D01*
X118674913Y-92399300D01*
X118865887Y-92399300D01*
X118872339Y-92397928D01*
X118872344Y-92397928D01*
X118959288Y-92379447D01*
X119052688Y-92359594D01*
X119159470Y-92312052D01*
X119221122Y-92284603D01*
X119221124Y-92284602D01*
X119227152Y-92281918D01*
X119242279Y-92270928D01*
X119298736Y-92229909D01*
X119381653Y-92169666D01*
X119409373Y-92138879D01*
X119469815Y-92101642D01*
X119540799Y-92102992D01*
X119554256Y-92108085D01*
X119599673Y-92128306D01*
X119599679Y-92128308D01*
X119605712Y-92130994D01*
X119699112Y-92150847D01*
X119786056Y-92169328D01*
X119786061Y-92169328D01*
X119792513Y-92170700D01*
X119983487Y-92170700D01*
X119989939Y-92169328D01*
X119989944Y-92169328D01*
X120076887Y-92150847D01*
X120170288Y-92130994D01*
X120176319Y-92128309D01*
X120338722Y-92056003D01*
X120338724Y-92056002D01*
X120344752Y-92053318D01*
X120379952Y-92027744D01*
X120400157Y-92013064D01*
X120499253Y-91941066D01*
X120627040Y-91799144D01*
X120707785Y-91659290D01*
X120719223Y-91639479D01*
X120719224Y-91639478D01*
X120722527Y-91633756D01*
X120781542Y-91452128D01*
X120801504Y-91262200D01*
X120792910Y-91180435D01*
X120782232Y-91078835D01*
X120782232Y-91078833D01*
X120781542Y-91072272D01*
X120722527Y-90890644D01*
X120627040Y-90725256D01*
X120559287Y-90650008D01*
X120503675Y-90588245D01*
X120503674Y-90588244D01*
X120499253Y-90583334D01*
X120381376Y-90497691D01*
X120350094Y-90474963D01*
X120350093Y-90474962D01*
X120344752Y-90471082D01*
X120338724Y-90468398D01*
X120338722Y-90468397D01*
X120176319Y-90396091D01*
X120176318Y-90396091D01*
X120170288Y-90393406D01*
X120064999Y-90371026D01*
X119989944Y-90355072D01*
X119989939Y-90355072D01*
X119983487Y-90353700D01*
X119792513Y-90353700D01*
X119786061Y-90355072D01*
X119786056Y-90355072D01*
X119711001Y-90371026D01*
X119605712Y-90393406D01*
X119599682Y-90396091D01*
X119599681Y-90396091D01*
X119437278Y-90468397D01*
X119437276Y-90468398D01*
X119431248Y-90471082D01*
X119425907Y-90474962D01*
X119425906Y-90474963D01*
X119394624Y-90497691D01*
X119276747Y-90583334D01*
X119249027Y-90614121D01*
X119188585Y-90651358D01*
X119117601Y-90650008D01*
X119104144Y-90644915D01*
X119058727Y-90624694D01*
X119058721Y-90624692D01*
X119052688Y-90622006D01*
X118959288Y-90602153D01*
X118872344Y-90583672D01*
X118872339Y-90583672D01*
X118865887Y-90582300D01*
X118674913Y-90582300D01*
X118668461Y-90583672D01*
X118668456Y-90583672D01*
X118581512Y-90602153D01*
X118488112Y-90622006D01*
X118482082Y-90624691D01*
X118482081Y-90624691D01*
X118319678Y-90696997D01*
X118319676Y-90696998D01*
X118313648Y-90699682D01*
X118308307Y-90703562D01*
X118308306Y-90703563D01*
X118270578Y-90730974D01*
X118159147Y-90811934D01*
X118154726Y-90816844D01*
X118154725Y-90816845D01*
X118076169Y-90904091D01*
X118031360Y-90953856D01*
X117997165Y-91013084D01*
X117949152Y-91096245D01*
X117935873Y-91119244D01*
X117876858Y-91300872D01*
X117856896Y-91490800D01*
X112453961Y-91490800D01*
X112469221Y-91473852D01*
X112469222Y-91473851D01*
X112473640Y-91468944D01*
X112569127Y-91303556D01*
X112628142Y-91121928D01*
X112630842Y-91096245D01*
X112647414Y-90938565D01*
X112648104Y-90932000D01*
X112645171Y-90904091D01*
X112628832Y-90748635D01*
X112628832Y-90748633D01*
X112628142Y-90742072D01*
X112569127Y-90560444D01*
X112473640Y-90395056D01*
X112345853Y-90253134D01*
X112330843Y-90242228D01*
X112288351Y-90211356D01*
X112260779Y-90191324D01*
X112217426Y-90135103D01*
X112211351Y-90064367D01*
X112215005Y-90050461D01*
X112221742Y-90029728D01*
X112222705Y-90020573D01*
X112241014Y-89846365D01*
X112241704Y-89839800D01*
X112237381Y-89798671D01*
X112222432Y-89656435D01*
X112222432Y-89656433D01*
X112221742Y-89649872D01*
X112162727Y-89468244D01*
X112138820Y-89426835D01*
X112106278Y-89370472D01*
X112085856Y-89335100D01*
X115443896Y-89335100D01*
X115444586Y-89341665D01*
X115453493Y-89426406D01*
X115463858Y-89525028D01*
X115522873Y-89706656D01*
X115526176Y-89712378D01*
X115526177Y-89712379D01*
X115533259Y-89724645D01*
X115618360Y-89872044D01*
X115622778Y-89876951D01*
X115622779Y-89876952D01*
X115711289Y-89975252D01*
X115746147Y-90013966D01*
X115776484Y-90036007D01*
X115863178Y-90098994D01*
X115900648Y-90126218D01*
X115906676Y-90128902D01*
X115906678Y-90128903D01*
X116046881Y-90191325D01*
X116075112Y-90203894D01*
X116168512Y-90223747D01*
X116255456Y-90242228D01*
X116255461Y-90242228D01*
X116261913Y-90243600D01*
X116452887Y-90243600D01*
X116459339Y-90242228D01*
X116459344Y-90242228D01*
X116546288Y-90223747D01*
X116639688Y-90203894D01*
X116667919Y-90191325D01*
X116808122Y-90128903D01*
X116808124Y-90128902D01*
X116814152Y-90126218D01*
X116828011Y-90116149D01*
X116959560Y-90020573D01*
X117026428Y-89996714D01*
X117095579Y-90012795D01*
X117127256Y-90038199D01*
X117193947Y-90112266D01*
X117293043Y-90184264D01*
X117321682Y-90205071D01*
X117348448Y-90224518D01*
X117354476Y-90227202D01*
X117354478Y-90227203D01*
X117423751Y-90258045D01*
X117522912Y-90302194D01*
X117616313Y-90322047D01*
X117703256Y-90340528D01*
X117703261Y-90340528D01*
X117709713Y-90341900D01*
X117900687Y-90341900D01*
X117907139Y-90340528D01*
X117907144Y-90340528D01*
X117994087Y-90322047D01*
X118087488Y-90302194D01*
X118186649Y-90258045D01*
X118255922Y-90227203D01*
X118255924Y-90227202D01*
X118261952Y-90224518D01*
X118288719Y-90205071D01*
X118317357Y-90184264D01*
X118416453Y-90112266D01*
X118435037Y-90091626D01*
X118539821Y-89975252D01*
X118539822Y-89975251D01*
X118544240Y-89970344D01*
X118609825Y-89856748D01*
X118636423Y-89810679D01*
X118636424Y-89810678D01*
X118639727Y-89804956D01*
X118698742Y-89623328D01*
X118700408Y-89607482D01*
X118718014Y-89439965D01*
X118718704Y-89433400D01*
X118713906Y-89387753D01*
X118699432Y-89250035D01*
X118699432Y-89250033D01*
X118698742Y-89243472D01*
X118639727Y-89061844D01*
X118627273Y-89040272D01*
X118588547Y-88973198D01*
X118544240Y-88896456D01*
X118485383Y-88831088D01*
X118420875Y-88759445D01*
X118420874Y-88759444D01*
X118416453Y-88754534D01*
X118308063Y-88675784D01*
X118267294Y-88646163D01*
X118267293Y-88646162D01*
X118261952Y-88642282D01*
X118255924Y-88639598D01*
X118255922Y-88639597D01*
X118093519Y-88567291D01*
X118093518Y-88567291D01*
X118087488Y-88564606D01*
X117990460Y-88543982D01*
X117907144Y-88526272D01*
X117907139Y-88526272D01*
X117900687Y-88524900D01*
X117709713Y-88524900D01*
X117703261Y-88526272D01*
X117703256Y-88526272D01*
X117619940Y-88543982D01*
X117522912Y-88564606D01*
X117516882Y-88567291D01*
X117516881Y-88567291D01*
X117354478Y-88639597D01*
X117354476Y-88639598D01*
X117348448Y-88642282D01*
X117343107Y-88646162D01*
X117343106Y-88646163D01*
X117203040Y-88747927D01*
X117136172Y-88771786D01*
X117067021Y-88755705D01*
X117035343Y-88730301D01*
X116973075Y-88661145D01*
X116973074Y-88661144D01*
X116968653Y-88656234D01*
X116844710Y-88566184D01*
X116819494Y-88547863D01*
X116819493Y-88547862D01*
X116814152Y-88543982D01*
X116808124Y-88541298D01*
X116808122Y-88541297D01*
X116645719Y-88468991D01*
X116645718Y-88468991D01*
X116639688Y-88466306D01*
X116531261Y-88443259D01*
X116459344Y-88427972D01*
X116459339Y-88427972D01*
X116452887Y-88426600D01*
X116261913Y-88426600D01*
X116255461Y-88427972D01*
X116255456Y-88427972D01*
X116183539Y-88443259D01*
X116075112Y-88466306D01*
X116069082Y-88468991D01*
X116069081Y-88468991D01*
X115906678Y-88541297D01*
X115906676Y-88541298D01*
X115900648Y-88543982D01*
X115895307Y-88547862D01*
X115895306Y-88547863D01*
X115870090Y-88566184D01*
X115746147Y-88656234D01*
X115741726Y-88661144D01*
X115741725Y-88661145D01*
X115642104Y-88771786D01*
X115618360Y-88798156D01*
X115570222Y-88881534D01*
X115529308Y-88952399D01*
X115522873Y-88963544D01*
X115463858Y-89145172D01*
X115463168Y-89151733D01*
X115463168Y-89151735D01*
X115448332Y-89292895D01*
X115443896Y-89335100D01*
X112085856Y-89335100D01*
X112067240Y-89302856D01*
X112013771Y-89243472D01*
X111943875Y-89165845D01*
X111943874Y-89165844D01*
X111939453Y-89160934D01*
X111814529Y-89070171D01*
X111790294Y-89052563D01*
X111790293Y-89052562D01*
X111784952Y-89048682D01*
X111778924Y-89045998D01*
X111778922Y-89045997D01*
X111616519Y-88973691D01*
X111616518Y-88973691D01*
X111610488Y-88971006D01*
X111510562Y-88949766D01*
X111430144Y-88932672D01*
X111430139Y-88932672D01*
X111423687Y-88931300D01*
X111232713Y-88931300D01*
X111226261Y-88932672D01*
X111226256Y-88932672D01*
X111145838Y-88949766D01*
X111045912Y-88971006D01*
X111039882Y-88973691D01*
X111039881Y-88973691D01*
X110877478Y-89045997D01*
X110877476Y-89045998D01*
X110871448Y-89048682D01*
X110866107Y-89052562D01*
X110866106Y-89052563D01*
X110841871Y-89070171D01*
X110716947Y-89160934D01*
X110712526Y-89165844D01*
X110712525Y-89165845D01*
X110642630Y-89243472D01*
X110589160Y-89302856D01*
X110550122Y-89370472D01*
X110517581Y-89426835D01*
X110493673Y-89468244D01*
X110434658Y-89649872D01*
X110433968Y-89656433D01*
X110433968Y-89656435D01*
X110419019Y-89798671D01*
X110414696Y-89839800D01*
X104585020Y-89839800D01*
X104646021Y-89772052D01*
X104646022Y-89772051D01*
X104650440Y-89767144D01*
X104729848Y-89629606D01*
X104742623Y-89607479D01*
X104742624Y-89607478D01*
X104745927Y-89601756D01*
X104804942Y-89420128D01*
X104817784Y-89297948D01*
X104824214Y-89236765D01*
X104824904Y-89230200D01*
X104815353Y-89139327D01*
X104805632Y-89046835D01*
X104805632Y-89046833D01*
X104804942Y-89040272D01*
X104745927Y-88858644D01*
X104715602Y-88806119D01*
X104698864Y-88737125D01*
X104722084Y-88670033D01*
X104767909Y-88630655D01*
X104857156Y-88585574D01*
X104895057Y-88566429D01*
X104895059Y-88566428D01*
X104900558Y-88563650D01*
X105048682Y-88447923D01*
X105052708Y-88443259D01*
X105167477Y-88310298D01*
X105167478Y-88310296D01*
X105171506Y-88305630D01*
X105264353Y-88142190D01*
X105323686Y-87963828D01*
X105347245Y-87777338D01*
X105347621Y-87750446D01*
X105329278Y-87563372D01*
X105321439Y-87537406D01*
X105298714Y-87462141D01*
X105274948Y-87383423D01*
X105186701Y-87217454D01*
X105116998Y-87131989D01*
X105089446Y-87066559D01*
X105101642Y-86996618D01*
X105149715Y-86944373D01*
X105163395Y-86937249D01*
X105258755Y-86894793D01*
X105258762Y-86894789D01*
X105264788Y-86892106D01*
X105270297Y-86888104D01*
X105346596Y-86832669D01*
X105419289Y-86779854D01*
X105423711Y-86774943D01*
X105542657Y-86642840D01*
X105542658Y-86642839D01*
X105547076Y-86637932D01*
X105611023Y-86527173D01*
X105639259Y-86478267D01*
X105639260Y-86478266D01*
X105642563Y-86472544D01*
X105701578Y-86290916D01*
X105702555Y-86281626D01*
X105720850Y-86107553D01*
X105721540Y-86100988D01*
X105718812Y-86075035D01*
X105702268Y-85917623D01*
X105702268Y-85917621D01*
X105701578Y-85911060D01*
X105674135Y-85826600D01*
X112065696Y-85826600D01*
X112066386Y-85833165D01*
X112081155Y-85973680D01*
X112085658Y-86016528D01*
X112144673Y-86198156D01*
X112199647Y-86293373D01*
X112216384Y-86362366D01*
X112199646Y-86419370D01*
X112179692Y-86453932D01*
X112120677Y-86635560D01*
X112119987Y-86642121D01*
X112119987Y-86642123D01*
X112106540Y-86770069D01*
X112100715Y-86825488D01*
X112101405Y-86832053D01*
X112116835Y-86978857D01*
X112120677Y-87015416D01*
X112179692Y-87197044D01*
X112182995Y-87202766D01*
X112182996Y-87202767D01*
X112214569Y-87257452D01*
X112275179Y-87362432D01*
X112279597Y-87367339D01*
X112279598Y-87367340D01*
X112312057Y-87403389D01*
X112402966Y-87504354D01*
X112557467Y-87616606D01*
X112563495Y-87619290D01*
X112563497Y-87619291D01*
X112638976Y-87652896D01*
X112731931Y-87694282D01*
X112799908Y-87708731D01*
X112912275Y-87732616D01*
X112912280Y-87732616D01*
X112918732Y-87733988D01*
X113109706Y-87733988D01*
X113116158Y-87732616D01*
X113116163Y-87732616D01*
X113228530Y-87708731D01*
X113296507Y-87694282D01*
X113389462Y-87652896D01*
X113464941Y-87619291D01*
X113464943Y-87619290D01*
X113470971Y-87616606D01*
X113625472Y-87504354D01*
X113716381Y-87403389D01*
X113748840Y-87367340D01*
X113748841Y-87367339D01*
X113753259Y-87362432D01*
X113813869Y-87257452D01*
X113845442Y-87202767D01*
X113845443Y-87202766D01*
X113848746Y-87197044D01*
X113907761Y-87015416D01*
X113911604Y-86978857D01*
X113927033Y-86832053D01*
X113927723Y-86825488D01*
X113921898Y-86770069D01*
X113908451Y-86642123D01*
X113908451Y-86642121D01*
X113907761Y-86635560D01*
X113848746Y-86453932D01*
X113793772Y-86358715D01*
X113777035Y-86289722D01*
X113793773Y-86232717D01*
X113810423Y-86203879D01*
X113810424Y-86203878D01*
X113813727Y-86198156D01*
X113872742Y-86016528D01*
X113877246Y-85973680D01*
X113892014Y-85833165D01*
X113892704Y-85826600D01*
X113890821Y-85808680D01*
X113873432Y-85643235D01*
X113873432Y-85643233D01*
X113872742Y-85636672D01*
X113813727Y-85455044D01*
X113807155Y-85443660D01*
X113753022Y-85349900D01*
X113718240Y-85289656D01*
X113696359Y-85265354D01*
X113594875Y-85152645D01*
X113594874Y-85152644D01*
X113590453Y-85147734D01*
X113466486Y-85057666D01*
X113441294Y-85039363D01*
X113441293Y-85039362D01*
X113435952Y-85035482D01*
X113429924Y-85032798D01*
X113429922Y-85032797D01*
X113267519Y-84960491D01*
X113267518Y-84960491D01*
X113261488Y-84957806D01*
X113168087Y-84937953D01*
X113081144Y-84919472D01*
X113081139Y-84919472D01*
X113074687Y-84918100D01*
X112883713Y-84918100D01*
X112877261Y-84919472D01*
X112877256Y-84919472D01*
X112790313Y-84937953D01*
X112696912Y-84957806D01*
X112690882Y-84960491D01*
X112690881Y-84960491D01*
X112528478Y-85032797D01*
X112528476Y-85032798D01*
X112522448Y-85035482D01*
X112517107Y-85039362D01*
X112517106Y-85039363D01*
X112491914Y-85057666D01*
X112367947Y-85147734D01*
X112363526Y-85152644D01*
X112363525Y-85152645D01*
X112262042Y-85265354D01*
X112240160Y-85289656D01*
X112205378Y-85349900D01*
X112151246Y-85443660D01*
X112144673Y-85455044D01*
X112085658Y-85636672D01*
X112084968Y-85643233D01*
X112084968Y-85643235D01*
X112067579Y-85808680D01*
X112065696Y-85826600D01*
X105674135Y-85826600D01*
X105642563Y-85729432D01*
X105635125Y-85716548D01*
X105580979Y-85622766D01*
X105547076Y-85564044D01*
X105521995Y-85536188D01*
X105423711Y-85427033D01*
X105423710Y-85427032D01*
X105419289Y-85422122D01*
X105264788Y-85309870D01*
X105258760Y-85307186D01*
X105258758Y-85307185D01*
X105096355Y-85234879D01*
X105096354Y-85234879D01*
X105090324Y-85232194D01*
X104979079Y-85208548D01*
X104909980Y-85193860D01*
X104909975Y-85193860D01*
X104903523Y-85192488D01*
X104712549Y-85192488D01*
X104706097Y-85193860D01*
X104706092Y-85193860D01*
X104636993Y-85208548D01*
X104525748Y-85232194D01*
X104519718Y-85234879D01*
X104519717Y-85234879D01*
X104357314Y-85307185D01*
X104357312Y-85307186D01*
X104351284Y-85309870D01*
X104196783Y-85422122D01*
X104192362Y-85427032D01*
X104192361Y-85427033D01*
X104094078Y-85536188D01*
X104068996Y-85564044D01*
X104035093Y-85622766D01*
X103980948Y-85716548D01*
X103973509Y-85729432D01*
X103971467Y-85735716D01*
X103968783Y-85741745D01*
X103966356Y-85740665D01*
X103932945Y-85789509D01*
X103879399Y-85815200D01*
X103737178Y-85845431D01*
X103737173Y-85845433D01*
X103730712Y-85846806D01*
X103724682Y-85849491D01*
X103724681Y-85849491D01*
X103562278Y-85921797D01*
X103562276Y-85921798D01*
X103556248Y-85924482D01*
X103550907Y-85928362D01*
X103550906Y-85928363D01*
X103534438Y-85940328D01*
X103401747Y-86036734D01*
X103397326Y-86041644D01*
X103397325Y-86041645D01*
X103343893Y-86100988D01*
X103273960Y-86178656D01*
X103242748Y-86232717D01*
X103209147Y-86290916D01*
X103178473Y-86344044D01*
X103119458Y-86525672D01*
X103118768Y-86532233D01*
X103118768Y-86532235D01*
X103103078Y-86681516D01*
X103099496Y-86715600D01*
X103100186Y-86722165D01*
X103117627Y-86888104D01*
X103119458Y-86905528D01*
X103178473Y-87087156D01*
X103181776Y-87092878D01*
X103181777Y-87092879D01*
X103209940Y-87141658D01*
X103273960Y-87252544D01*
X103278378Y-87257451D01*
X103278379Y-87257452D01*
X103333798Y-87319001D01*
X103401747Y-87394466D01*
X103407088Y-87398346D01*
X103411676Y-87402478D01*
X103448913Y-87462925D01*
X103447463Y-87534212D01*
X103444254Y-87544326D01*
X103444253Y-87544333D01*
X103442392Y-87550198D01*
X103421439Y-87736998D01*
X103422274Y-87746941D01*
X103436626Y-87917852D01*
X103437168Y-87924311D01*
X103488980Y-88105001D01*
X103560824Y-88244794D01*
X103561406Y-88245927D01*
X103574753Y-88315657D01*
X103548283Y-88381535D01*
X103500588Y-88418628D01*
X103460678Y-88436397D01*
X103460676Y-88436398D01*
X103454648Y-88439082D01*
X103449307Y-88442962D01*
X103449306Y-88442963D01*
X103413482Y-88468991D01*
X103300147Y-88551334D01*
X103295726Y-88556244D01*
X103295725Y-88556245D01*
X103292476Y-88559854D01*
X103172360Y-88693256D01*
X103128466Y-88769282D01*
X103095153Y-88826983D01*
X103076873Y-88858644D01*
X103017858Y-89040272D01*
X103017168Y-89046833D01*
X103017168Y-89046835D01*
X103007447Y-89139327D01*
X102997896Y-89230200D01*
X101889164Y-89230200D01*
X101875727Y-89188844D01*
X101862449Y-89165845D01*
X101793254Y-89045997D01*
X101780240Y-89023456D01*
X101762038Y-89003240D01*
X101656875Y-88886445D01*
X101656874Y-88886444D01*
X101652453Y-88881534D01*
X101542819Y-88801880D01*
X101503294Y-88773163D01*
X101503293Y-88773162D01*
X101497952Y-88769282D01*
X101491924Y-88766598D01*
X101491922Y-88766597D01*
X101329519Y-88694291D01*
X101329518Y-88694291D01*
X101323488Y-88691606D01*
X101221996Y-88670033D01*
X101143144Y-88653272D01*
X101143139Y-88653272D01*
X101136687Y-88651900D01*
X100945713Y-88651900D01*
X100939261Y-88653272D01*
X100939256Y-88653272D01*
X100860404Y-88670033D01*
X100758912Y-88691606D01*
X100752882Y-88694291D01*
X100752881Y-88694291D01*
X100590478Y-88766597D01*
X100590476Y-88766598D01*
X100584448Y-88769282D01*
X100579107Y-88773162D01*
X100579106Y-88773163D01*
X100539581Y-88801880D01*
X100429947Y-88881534D01*
X100425526Y-88886444D01*
X100425525Y-88886445D01*
X100320363Y-89003240D01*
X100302160Y-89023456D01*
X100289146Y-89045997D01*
X100219952Y-89165845D01*
X100206673Y-89188844D01*
X100147658Y-89370472D01*
X100146968Y-89377033D01*
X100146968Y-89377035D01*
X100130754Y-89531306D01*
X100127696Y-89560400D01*
X96947204Y-89560400D01*
X96884519Y-89532491D01*
X96884518Y-89532491D01*
X96878488Y-89529806D01*
X96785088Y-89509953D01*
X96698144Y-89491472D01*
X96698139Y-89491472D01*
X96691687Y-89490100D01*
X96500713Y-89490100D01*
X96494261Y-89491472D01*
X96494256Y-89491472D01*
X96407312Y-89509953D01*
X96313912Y-89529806D01*
X96307882Y-89532491D01*
X96307881Y-89532491D01*
X96145478Y-89604797D01*
X96145476Y-89604798D01*
X96139448Y-89607482D01*
X95984947Y-89719734D01*
X95857160Y-89861656D01*
X95848329Y-89876952D01*
X95767220Y-90017437D01*
X95761673Y-90027044D01*
X95702658Y-90208672D01*
X95701968Y-90215233D01*
X95701968Y-90215235D01*
X95688655Y-90341900D01*
X95682696Y-90398600D01*
X78765400Y-90398600D01*
X78765400Y-87997552D01*
X82272756Y-87997552D01*
X82274181Y-88014522D01*
X82287414Y-88172106D01*
X82288485Y-88184865D01*
X82305669Y-88244794D01*
X82325662Y-88314515D01*
X82340297Y-88365555D01*
X82343112Y-88371032D01*
X82343113Y-88371035D01*
X82422189Y-88524900D01*
X82426218Y-88532740D01*
X82430041Y-88537564D01*
X82430044Y-88537568D01*
X82515211Y-88645020D01*
X82542977Y-88680052D01*
X82547671Y-88684047D01*
X82647822Y-88769282D01*
X82686124Y-88801880D01*
X82691502Y-88804886D01*
X82691504Y-88804887D01*
X82745367Y-88834990D01*
X82850209Y-88893584D01*
X83028980Y-88951670D01*
X83215630Y-88973927D01*
X83221765Y-88973455D01*
X83221767Y-88973455D01*
X83396905Y-88959979D01*
X83396909Y-88959978D01*
X83403047Y-88959506D01*
X83504068Y-88931300D01*
X83578150Y-88910616D01*
X83578153Y-88910615D01*
X83584094Y-88908956D01*
X83589598Y-88906176D01*
X83589600Y-88906175D01*
X83746374Y-88826983D01*
X83746376Y-88826982D01*
X83751875Y-88824204D01*
X83899999Y-88708477D01*
X83912244Y-88694291D01*
X84018794Y-88570852D01*
X84018795Y-88570850D01*
X84022823Y-88566184D01*
X84115670Y-88402744D01*
X84175003Y-88224382D01*
X84198562Y-88037892D01*
X84198657Y-88031101D01*
X84198889Y-88014522D01*
X84198889Y-88014518D01*
X84198938Y-88011000D01*
X84180595Y-87823926D01*
X84165348Y-87773424D01*
X84153027Y-87732616D01*
X84126265Y-87643977D01*
X84038018Y-87478008D01*
X83919215Y-87332340D01*
X83824493Y-87253979D01*
X83779129Y-87216450D01*
X83779124Y-87216447D01*
X83774380Y-87212522D01*
X83769997Y-87210152D01*
X99011356Y-87210152D01*
X99011872Y-87216296D01*
X99025283Y-87376000D01*
X99027085Y-87397465D01*
X99041471Y-87447635D01*
X99069197Y-87544326D01*
X99078897Y-87578155D01*
X99081712Y-87583632D01*
X99081713Y-87583635D01*
X99157383Y-87730873D01*
X99164818Y-87745340D01*
X99168641Y-87750164D01*
X99168644Y-87750168D01*
X99236482Y-87835757D01*
X99281577Y-87892652D01*
X99286271Y-87896647D01*
X99416517Y-88007495D01*
X99424724Y-88014480D01*
X99430102Y-88017486D01*
X99430104Y-88017487D01*
X99472854Y-88041379D01*
X99588809Y-88106184D01*
X99767580Y-88164270D01*
X99954230Y-88186527D01*
X99960365Y-88186055D01*
X99960367Y-88186055D01*
X100135505Y-88172579D01*
X100135509Y-88172578D01*
X100141647Y-88172106D01*
X100229585Y-88147553D01*
X100316750Y-88123216D01*
X100316753Y-88123215D01*
X100322694Y-88121556D01*
X100328198Y-88118776D01*
X100328200Y-88118775D01*
X100484974Y-88039583D01*
X100484976Y-88039582D01*
X100490475Y-88036804D01*
X100638599Y-87921077D01*
X100650555Y-87907226D01*
X100757394Y-87783452D01*
X100757395Y-87783450D01*
X100761423Y-87778784D01*
X100775521Y-87753968D01*
X100838004Y-87643977D01*
X100854270Y-87615344D01*
X100913603Y-87436982D01*
X100937162Y-87250492D01*
X100937538Y-87223600D01*
X100919195Y-87036526D01*
X100912822Y-87015416D01*
X100890399Y-86941149D01*
X100864865Y-86856577D01*
X100776618Y-86690608D01*
X100702037Y-86599162D01*
X100674483Y-86533731D01*
X100686679Y-86463789D01*
X100712749Y-86429352D01*
X100712653Y-86429266D01*
X100713663Y-86428145D01*
X100713666Y-86428140D01*
X100717075Y-86424355D01*
X100836021Y-86292252D01*
X100836022Y-86292251D01*
X100840440Y-86287344D01*
X100935927Y-86121956D01*
X100994942Y-85940328D01*
X100996608Y-85924482D01*
X101000597Y-85886525D01*
X101027611Y-85820868D01*
X101085832Y-85780239D01*
X101156777Y-85777536D01*
X101217921Y-85813618D01*
X101245740Y-85860760D01*
X101281547Y-85970962D01*
X101377034Y-86136350D01*
X101381452Y-86141257D01*
X101381453Y-86141258D01*
X101410707Y-86173748D01*
X101504821Y-86278272D01*
X101587471Y-86338321D01*
X101630380Y-86369496D01*
X101659322Y-86390524D01*
X101665350Y-86393208D01*
X101665352Y-86393209D01*
X101827755Y-86465515D01*
X101833786Y-86468200D01*
X101898710Y-86482000D01*
X102014130Y-86506534D01*
X102014135Y-86506534D01*
X102020587Y-86507906D01*
X102211561Y-86507906D01*
X102218013Y-86506534D01*
X102218018Y-86506534D01*
X102333438Y-86482000D01*
X102398362Y-86468200D01*
X102404393Y-86465515D01*
X102566796Y-86393209D01*
X102566798Y-86393208D01*
X102572826Y-86390524D01*
X102601769Y-86369496D01*
X102644677Y-86338321D01*
X102727327Y-86278272D01*
X102821441Y-86173748D01*
X102850695Y-86141258D01*
X102850696Y-86141257D01*
X102855114Y-86136350D01*
X102950601Y-85970962D01*
X103009616Y-85789334D01*
X103016514Y-85723709D01*
X103028888Y-85605971D01*
X103029578Y-85599406D01*
X103019630Y-85504753D01*
X103010306Y-85416041D01*
X103010306Y-85416039D01*
X103009616Y-85409478D01*
X102950601Y-85227850D01*
X102855114Y-85062462D01*
X102796538Y-84997406D01*
X102731749Y-84925451D01*
X102731748Y-84925450D01*
X102727327Y-84920540D01*
X102572826Y-84808288D01*
X102566798Y-84805604D01*
X102566796Y-84805603D01*
X102404393Y-84733297D01*
X102404392Y-84733297D01*
X102398362Y-84730612D01*
X102304961Y-84710759D01*
X102218018Y-84692278D01*
X102218013Y-84692278D01*
X102211561Y-84690906D01*
X102020587Y-84690906D01*
X102014135Y-84692278D01*
X102014130Y-84692278D01*
X101927187Y-84710759D01*
X101833786Y-84730612D01*
X101827756Y-84733297D01*
X101827755Y-84733297D01*
X101665352Y-84805603D01*
X101665350Y-84805604D01*
X101659322Y-84808288D01*
X101504821Y-84920540D01*
X101500400Y-84925450D01*
X101500399Y-84925451D01*
X101435611Y-84997406D01*
X101377034Y-85062462D01*
X101281547Y-85227850D01*
X101222532Y-85409478D01*
X101221842Y-85416039D01*
X101221842Y-85416041D01*
X101216877Y-85463281D01*
X101189863Y-85528938D01*
X101131642Y-85569567D01*
X101060697Y-85572270D01*
X100999553Y-85536188D01*
X100971734Y-85489046D01*
X100970436Y-85485051D01*
X100935927Y-85378844D01*
X100923876Y-85357970D01*
X100881923Y-85285307D01*
X100840440Y-85213456D01*
X100821561Y-85192488D01*
X100717075Y-85076445D01*
X100717074Y-85076444D01*
X100712653Y-85071534D01*
X100558152Y-84959282D01*
X100552124Y-84956598D01*
X100552122Y-84956597D01*
X100389719Y-84884291D01*
X100389718Y-84884291D01*
X100383688Y-84881606D01*
X100290287Y-84861753D01*
X100203344Y-84843272D01*
X100203339Y-84843272D01*
X100196887Y-84841900D01*
X100005913Y-84841900D01*
X99999461Y-84843272D01*
X99999456Y-84843272D01*
X99912513Y-84861753D01*
X99819112Y-84881606D01*
X99813082Y-84884291D01*
X99813081Y-84884291D01*
X99650678Y-84956597D01*
X99650676Y-84956598D01*
X99644648Y-84959282D01*
X99490147Y-85071534D01*
X99485726Y-85076444D01*
X99485725Y-85076445D01*
X99381240Y-85192488D01*
X99362360Y-85213456D01*
X99320877Y-85285307D01*
X99278925Y-85357970D01*
X99266873Y-85378844D01*
X99207858Y-85560472D01*
X99207168Y-85567033D01*
X99207168Y-85567035D01*
X99200947Y-85626223D01*
X99187896Y-85750400D01*
X99188586Y-85756965D01*
X99206193Y-85924482D01*
X99207858Y-85940328D01*
X99266873Y-86121956D01*
X99362360Y-86287344D01*
X99366778Y-86292251D01*
X99366779Y-86292252D01*
X99376829Y-86303413D01*
X99407548Y-86367420D01*
X99398785Y-86437873D01*
X99362149Y-86485919D01*
X99300528Y-86535464D01*
X99296570Y-86540182D01*
X99296567Y-86540184D01*
X99244167Y-86602632D01*
X99179702Y-86679459D01*
X99176738Y-86684851D01*
X99176735Y-86684855D01*
X99130280Y-86769357D01*
X99089146Y-86844180D01*
X99087285Y-86850047D01*
X99087284Y-86850049D01*
X99071767Y-86898965D01*
X99032309Y-87023352D01*
X99011356Y-87210152D01*
X83769997Y-87210152D01*
X83768961Y-87209592D01*
X83768958Y-87209590D01*
X83690003Y-87166900D01*
X83609031Y-87123119D01*
X83429466Y-87067534D01*
X83423341Y-87066890D01*
X83423340Y-87066890D01*
X83248652Y-87048529D01*
X83248651Y-87048529D01*
X83242524Y-87047885D01*
X83165473Y-87054897D01*
X83061465Y-87064363D01*
X83061462Y-87064364D01*
X83055326Y-87064922D01*
X83049420Y-87066660D01*
X83049416Y-87066661D01*
X82916078Y-87105905D01*
X82875002Y-87117994D01*
X82869542Y-87120848D01*
X82869543Y-87120848D01*
X82720784Y-87198617D01*
X82708421Y-87205080D01*
X82561928Y-87322864D01*
X82557970Y-87327582D01*
X82557967Y-87327584D01*
X82471306Y-87430863D01*
X82441102Y-87466859D01*
X82438138Y-87472251D01*
X82438135Y-87472255D01*
X82376904Y-87583635D01*
X82350546Y-87631580D01*
X82348685Y-87637447D01*
X82348684Y-87637449D01*
X82322127Y-87721166D01*
X82293709Y-87810752D01*
X82272756Y-87997552D01*
X78765400Y-87997552D01*
X78765400Y-87458073D01*
X78785402Y-87389952D01*
X78839058Y-87343459D01*
X78909332Y-87333355D01*
X78973912Y-87362849D01*
X78986637Y-87375575D01*
X79052865Y-87452031D01*
X79052869Y-87452035D01*
X79056250Y-87455938D01*
X79228126Y-87598632D01*
X79421000Y-87711338D01*
X79629692Y-87791030D01*
X79634760Y-87792061D01*
X79634763Y-87792062D01*
X79697781Y-87804883D01*
X79848597Y-87835567D01*
X79853772Y-87835757D01*
X79853774Y-87835757D01*
X80066673Y-87843564D01*
X80066677Y-87843564D01*
X80071837Y-87843753D01*
X80076957Y-87843097D01*
X80076959Y-87843097D01*
X80288288Y-87816025D01*
X80288289Y-87816025D01*
X80293416Y-87815368D01*
X80328364Y-87804883D01*
X80502429Y-87752661D01*
X80502434Y-87752659D01*
X80507384Y-87751174D01*
X80707994Y-87652896D01*
X80889860Y-87523173D01*
X81048096Y-87365489D01*
X81054402Y-87356714D01*
X81175435Y-87188277D01*
X81178453Y-87184077D01*
X81186331Y-87168138D01*
X81275136Y-86988453D01*
X81275137Y-86988451D01*
X81277430Y-86983811D01*
X81342370Y-86770069D01*
X81371529Y-86548590D01*
X81371618Y-86544940D01*
X81373074Y-86485365D01*
X81373074Y-86485361D01*
X81373156Y-86482000D01*
X81354852Y-86259361D01*
X81354611Y-86258400D01*
X88342096Y-86258400D01*
X88342786Y-86264965D01*
X88360064Y-86429352D01*
X88362058Y-86448328D01*
X88421073Y-86629956D01*
X88424376Y-86635678D01*
X88424377Y-86635679D01*
X88430033Y-86645476D01*
X88516560Y-86795344D01*
X88520978Y-86800251D01*
X88520979Y-86800252D01*
X88600081Y-86888104D01*
X88644347Y-86937266D01*
X88798848Y-87049518D01*
X88804876Y-87052202D01*
X88804878Y-87052203D01*
X88960067Y-87121297D01*
X88973312Y-87127194D01*
X89066712Y-87147047D01*
X89153656Y-87165528D01*
X89153661Y-87165528D01*
X89160113Y-87166900D01*
X89351087Y-87166900D01*
X89357539Y-87165528D01*
X89357544Y-87165528D01*
X89444488Y-87147047D01*
X89537888Y-87127194D01*
X89551133Y-87121297D01*
X89706322Y-87052203D01*
X89706324Y-87052202D01*
X89712352Y-87049518D01*
X89866853Y-86937266D01*
X89911119Y-86888104D01*
X89990221Y-86800252D01*
X89990222Y-86800251D01*
X89994640Y-86795344D01*
X90081167Y-86645476D01*
X90086823Y-86635679D01*
X90086824Y-86635678D01*
X90090127Y-86629956D01*
X90149142Y-86448328D01*
X90151137Y-86429352D01*
X90168414Y-86264965D01*
X90169104Y-86258400D01*
X90158882Y-86161144D01*
X90149832Y-86075035D01*
X90149832Y-86075033D01*
X90149142Y-86068472D01*
X90090127Y-85886844D01*
X90061835Y-85837840D01*
X90011351Y-85750400D01*
X89994640Y-85721456D01*
X89948802Y-85670547D01*
X89871275Y-85584445D01*
X89871274Y-85584444D01*
X89866853Y-85579534D01*
X89745238Y-85491175D01*
X89717694Y-85471163D01*
X89717693Y-85471162D01*
X89712352Y-85467282D01*
X89706324Y-85464598D01*
X89706322Y-85464597D01*
X89543919Y-85392291D01*
X89543918Y-85392291D01*
X89537888Y-85389606D01*
X89438292Y-85368436D01*
X89357544Y-85351272D01*
X89357539Y-85351272D01*
X89351087Y-85349900D01*
X89160113Y-85349900D01*
X89153661Y-85351272D01*
X89153656Y-85351272D01*
X89072908Y-85368436D01*
X88973312Y-85389606D01*
X88967282Y-85392291D01*
X88967281Y-85392291D01*
X88804878Y-85464597D01*
X88804876Y-85464598D01*
X88798848Y-85467282D01*
X88793507Y-85471162D01*
X88793506Y-85471163D01*
X88765962Y-85491175D01*
X88644347Y-85579534D01*
X88639926Y-85584444D01*
X88639925Y-85584445D01*
X88562399Y-85670547D01*
X88516560Y-85721456D01*
X88499849Y-85750400D01*
X88449366Y-85837840D01*
X88421073Y-85886844D01*
X88362058Y-86068472D01*
X88361368Y-86075033D01*
X88361368Y-86075035D01*
X88352318Y-86161144D01*
X88342096Y-86258400D01*
X81354611Y-86258400D01*
X81300431Y-86042702D01*
X81211354Y-85837840D01*
X81106471Y-85675715D01*
X81092822Y-85654617D01*
X81092820Y-85654614D01*
X81090014Y-85650277D01*
X81086540Y-85646459D01*
X81086533Y-85646450D01*
X80942435Y-85488088D01*
X80911383Y-85424242D01*
X80919779Y-85353744D01*
X80964956Y-85298976D01*
X80991400Y-85285307D01*
X81098052Y-85245325D01*
X81113649Y-85236786D01*
X81215724Y-85160285D01*
X81228285Y-85147724D01*
X81304786Y-85045649D01*
X81313324Y-85030054D01*
X81358478Y-84909606D01*
X81362105Y-84894351D01*
X81367631Y-84843486D01*
X81368000Y-84836672D01*
X81368000Y-84550635D01*
X89828256Y-84550635D01*
X89830912Y-84582268D01*
X89843254Y-84729240D01*
X89843985Y-84737948D01*
X89857654Y-84785618D01*
X89893328Y-84910026D01*
X89895797Y-84918638D01*
X89898612Y-84924115D01*
X89898613Y-84924118D01*
X89936278Y-84997406D01*
X89981718Y-85085823D01*
X89985541Y-85090647D01*
X89985544Y-85090651D01*
X90066260Y-85192488D01*
X90098477Y-85233135D01*
X90241624Y-85354963D01*
X90247002Y-85357969D01*
X90247004Y-85357970D01*
X90295600Y-85385129D01*
X90405709Y-85446667D01*
X90584480Y-85504753D01*
X90771130Y-85527010D01*
X90777265Y-85526538D01*
X90777267Y-85526538D01*
X90952405Y-85513062D01*
X90952409Y-85513061D01*
X90958547Y-85512589D01*
X91057176Y-85485051D01*
X91133650Y-85463699D01*
X91133653Y-85463698D01*
X91139594Y-85462039D01*
X91145098Y-85459259D01*
X91145100Y-85459258D01*
X91301874Y-85380066D01*
X91301876Y-85380065D01*
X91307375Y-85377287D01*
X91455499Y-85261560D01*
X91462178Y-85253822D01*
X91574294Y-85123935D01*
X91574295Y-85123933D01*
X91578323Y-85119267D01*
X91671170Y-84955827D01*
X91730503Y-84777465D01*
X91754062Y-84590975D01*
X91754285Y-84575006D01*
X91754389Y-84567605D01*
X91754389Y-84567601D01*
X91754438Y-84564083D01*
X91736271Y-84378800D01*
X118364896Y-84378800D01*
X118365586Y-84385365D01*
X118382313Y-84544510D01*
X118384858Y-84568728D01*
X118443873Y-84750356D01*
X118447176Y-84756078D01*
X118447177Y-84756079D01*
X118475770Y-84805603D01*
X118539360Y-84915744D01*
X118543778Y-84920651D01*
X118543779Y-84920652D01*
X118629005Y-85015305D01*
X118667147Y-85057666D01*
X118705902Y-85085823D01*
X118813598Y-85164069D01*
X118821648Y-85169918D01*
X118827676Y-85172602D01*
X118827678Y-85172603D01*
X118972609Y-85237130D01*
X118996112Y-85247594D01*
X119079666Y-85265354D01*
X119176456Y-85285928D01*
X119176461Y-85285928D01*
X119182913Y-85287300D01*
X119373887Y-85287300D01*
X119380339Y-85285928D01*
X119380344Y-85285928D01*
X119477134Y-85265354D01*
X119560688Y-85247594D01*
X119584191Y-85237130D01*
X119729122Y-85172603D01*
X119729124Y-85172602D01*
X119735152Y-85169918D01*
X119743203Y-85164069D01*
X119850898Y-85085823D01*
X119889653Y-85057666D01*
X119927795Y-85015305D01*
X120013021Y-84920652D01*
X120013022Y-84920651D01*
X120017440Y-84915744D01*
X120081030Y-84805603D01*
X120109623Y-84756079D01*
X120109624Y-84756078D01*
X120112927Y-84750356D01*
X120171942Y-84568728D01*
X120174488Y-84544510D01*
X120191214Y-84385365D01*
X120191904Y-84378800D01*
X120187109Y-84333176D01*
X120172632Y-84195435D01*
X120172632Y-84195433D01*
X120171942Y-84188872D01*
X120112927Y-84007244D01*
X120017440Y-83841856D01*
X119983156Y-83803779D01*
X119894075Y-83704845D01*
X119894074Y-83704844D01*
X119889653Y-83699934D01*
X119776888Y-83618005D01*
X119740494Y-83591563D01*
X119740493Y-83591562D01*
X119735152Y-83587682D01*
X119729124Y-83584998D01*
X119729122Y-83584997D01*
X119566719Y-83512691D01*
X119566718Y-83512691D01*
X119560688Y-83510006D01*
X119467288Y-83490153D01*
X119380344Y-83471672D01*
X119380339Y-83471672D01*
X119373887Y-83470300D01*
X119182913Y-83470300D01*
X119176461Y-83471672D01*
X119176456Y-83471672D01*
X119089512Y-83490153D01*
X118996112Y-83510006D01*
X118990082Y-83512691D01*
X118990081Y-83512691D01*
X118827678Y-83584997D01*
X118827676Y-83584998D01*
X118821648Y-83587682D01*
X118816307Y-83591562D01*
X118816306Y-83591563D01*
X118779912Y-83618005D01*
X118667147Y-83699934D01*
X118662726Y-83704844D01*
X118662725Y-83704845D01*
X118573645Y-83803779D01*
X118539360Y-83841856D01*
X118443873Y-84007244D01*
X118384858Y-84188872D01*
X118384168Y-84195433D01*
X118384168Y-84195435D01*
X118369691Y-84333176D01*
X118364896Y-84378800D01*
X91736271Y-84378800D01*
X91736095Y-84377009D01*
X91723597Y-84335612D01*
X91705930Y-84277097D01*
X91681765Y-84197060D01*
X91593518Y-84031091D01*
X91474715Y-83885423D01*
X91392314Y-83817255D01*
X91334629Y-83769533D01*
X91334624Y-83769530D01*
X91329880Y-83765605D01*
X91324461Y-83762675D01*
X91324458Y-83762673D01*
X91254971Y-83725102D01*
X91164531Y-83676202D01*
X90984966Y-83620617D01*
X90978841Y-83619973D01*
X90978840Y-83619973D01*
X90804152Y-83601612D01*
X90804151Y-83601612D01*
X90798024Y-83600968D01*
X90720973Y-83607980D01*
X90616965Y-83617446D01*
X90616962Y-83617447D01*
X90610826Y-83618005D01*
X90604920Y-83619743D01*
X90604916Y-83619744D01*
X90530361Y-83641687D01*
X90430502Y-83671077D01*
X90398131Y-83688000D01*
X90274264Y-83752756D01*
X90263921Y-83758163D01*
X90117428Y-83875947D01*
X90113470Y-83880665D01*
X90113467Y-83880667D01*
X90098537Y-83898460D01*
X89996602Y-84019942D01*
X89993638Y-84025334D01*
X89993635Y-84025338D01*
X89923958Y-84152081D01*
X89906046Y-84184663D01*
X89904185Y-84190530D01*
X89904184Y-84190532D01*
X89885394Y-84249767D01*
X89849209Y-84363835D01*
X89828256Y-84550635D01*
X81368000Y-84550635D01*
X81368000Y-84214115D01*
X81363525Y-84198876D01*
X81362135Y-84197671D01*
X81354452Y-84196000D01*
X79882000Y-84196000D01*
X79813879Y-84175998D01*
X79767386Y-84122342D01*
X79756000Y-84070000D01*
X79756000Y-83669885D01*
X80264000Y-83669885D01*
X80268475Y-83685124D01*
X80269865Y-83686329D01*
X80277548Y-83688000D01*
X81349884Y-83688000D01*
X81365123Y-83683525D01*
X81366328Y-83682135D01*
X81367999Y-83674452D01*
X81367999Y-83047331D01*
X81367629Y-83040510D01*
X81362105Y-82989648D01*
X81358479Y-82974396D01*
X81313324Y-82853946D01*
X81306429Y-82841352D01*
X114606956Y-82841352D01*
X114607472Y-82847496D01*
X114619409Y-82989648D01*
X114622685Y-83028665D01*
X114648591Y-83119010D01*
X114668550Y-83188614D01*
X114674497Y-83209355D01*
X114677312Y-83214832D01*
X114677313Y-83214835D01*
X114757603Y-83371063D01*
X114760418Y-83376540D01*
X114764241Y-83381364D01*
X114764244Y-83381368D01*
X114790625Y-83414652D01*
X114877177Y-83523852D01*
X114881871Y-83527847D01*
X114968445Y-83601527D01*
X115020324Y-83645680D01*
X115025702Y-83648686D01*
X115025704Y-83648687D01*
X115088040Y-83683525D01*
X115184409Y-83737384D01*
X115363180Y-83795470D01*
X115549830Y-83817727D01*
X115555965Y-83817255D01*
X115555967Y-83817255D01*
X115731105Y-83803779D01*
X115731109Y-83803778D01*
X115737247Y-83803306D01*
X115822378Y-83779537D01*
X115912350Y-83754416D01*
X115912353Y-83754415D01*
X115918294Y-83752756D01*
X115923798Y-83749976D01*
X115923800Y-83749975D01*
X116080574Y-83670783D01*
X116080576Y-83670782D01*
X116086075Y-83668004D01*
X116234199Y-83552277D01*
X116238225Y-83547613D01*
X116352994Y-83414652D01*
X116352995Y-83414650D01*
X116357023Y-83409984D01*
X116449870Y-83246544D01*
X116509203Y-83068182D01*
X116532762Y-82881692D01*
X116533138Y-82854800D01*
X116514795Y-82667726D01*
X116504476Y-82633546D01*
X116462246Y-82493677D01*
X116460465Y-82487777D01*
X116372218Y-82321808D01*
X116253415Y-82176140D01*
X116176246Y-82112300D01*
X116113329Y-82060250D01*
X116113324Y-82060247D01*
X116108580Y-82056322D01*
X116103161Y-82053392D01*
X116103158Y-82053390D01*
X115999980Y-81997603D01*
X115943231Y-81966919D01*
X115763666Y-81911334D01*
X115757541Y-81910690D01*
X115757540Y-81910690D01*
X115582852Y-81892329D01*
X115582851Y-81892329D01*
X115576724Y-81891685D01*
X115499673Y-81898697D01*
X115395665Y-81908163D01*
X115395662Y-81908164D01*
X115389526Y-81908722D01*
X115383620Y-81910460D01*
X115383616Y-81910461D01*
X115250278Y-81949705D01*
X115209202Y-81961794D01*
X115153265Y-81991037D01*
X115051059Y-82044469D01*
X115042621Y-82048880D01*
X114896128Y-82166664D01*
X114892170Y-82171382D01*
X114892167Y-82171384D01*
X114804797Y-82275508D01*
X114775302Y-82310659D01*
X114772338Y-82316051D01*
X114772335Y-82316055D01*
X114766176Y-82327259D01*
X114684746Y-82475380D01*
X114627909Y-82654552D01*
X114606956Y-82841352D01*
X81306429Y-82841352D01*
X81304786Y-82838351D01*
X81228285Y-82736276D01*
X81215724Y-82723715D01*
X81113649Y-82647214D01*
X81098054Y-82638676D01*
X80977606Y-82593522D01*
X80962351Y-82589895D01*
X80911486Y-82584369D01*
X80904672Y-82584000D01*
X80282115Y-82584000D01*
X80266876Y-82588475D01*
X80265671Y-82589865D01*
X80264000Y-82597548D01*
X80264000Y-83669885D01*
X79756000Y-83669885D01*
X79756000Y-82602116D01*
X79751525Y-82586877D01*
X79750135Y-82585672D01*
X79742452Y-82584001D01*
X79115331Y-82584001D01*
X79108510Y-82584371D01*
X79057648Y-82589895D01*
X79042396Y-82593521D01*
X78935630Y-82633546D01*
X78864823Y-82638729D01*
X78802454Y-82604808D01*
X78768324Y-82542553D01*
X78765400Y-82515564D01*
X78765400Y-81203800D01*
X102464496Y-81203800D01*
X102484458Y-81393728D01*
X102543473Y-81575356D01*
X102638960Y-81740744D01*
X102766747Y-81882666D01*
X102832926Y-81930748D01*
X102908539Y-81985684D01*
X102921248Y-81994918D01*
X102927276Y-81997602D01*
X102927278Y-81997603D01*
X103072820Y-82062402D01*
X103095712Y-82072594D01*
X103189113Y-82092447D01*
X103276056Y-82110928D01*
X103276061Y-82110928D01*
X103282513Y-82112300D01*
X103473487Y-82112300D01*
X103479939Y-82110928D01*
X103479944Y-82110928D01*
X103566887Y-82092447D01*
X103660288Y-82072594D01*
X103683180Y-82062402D01*
X103828722Y-81997603D01*
X103828724Y-81997602D01*
X103834752Y-81994918D01*
X103847462Y-81985684D01*
X103923074Y-81930748D01*
X103989253Y-81882666D01*
X104117040Y-81740744D01*
X104212527Y-81575356D01*
X104271542Y-81393728D01*
X104291504Y-81203800D01*
X104271542Y-81013872D01*
X104212527Y-80832244D01*
X104117040Y-80666856D01*
X103989253Y-80524934D01*
X103834752Y-80412682D01*
X103828724Y-80409998D01*
X103828722Y-80409997D01*
X103666319Y-80337691D01*
X103666318Y-80337691D01*
X103660288Y-80335006D01*
X103566887Y-80315153D01*
X103479944Y-80296672D01*
X103479939Y-80296672D01*
X103473487Y-80295300D01*
X103282513Y-80295300D01*
X103276061Y-80296672D01*
X103276056Y-80296672D01*
X103189113Y-80315153D01*
X103095712Y-80335006D01*
X103089682Y-80337691D01*
X103089681Y-80337691D01*
X102927278Y-80409997D01*
X102927276Y-80409998D01*
X102921248Y-80412682D01*
X102766747Y-80524934D01*
X102638960Y-80666856D01*
X102543473Y-80832244D01*
X102484458Y-81013872D01*
X102464496Y-81203800D01*
X78765400Y-81203800D01*
X78765400Y-80972687D01*
X78785402Y-80904566D01*
X78839058Y-80858073D01*
X78896873Y-80846806D01*
X79509156Y-80873427D01*
X79509157Y-80873427D01*
X79513137Y-80873600D01*
X81037137Y-80746600D01*
X81047108Y-80742019D01*
X81047111Y-80742018D01*
X82900274Y-79890564D01*
X82916737Y-79883000D01*
X82921321Y-79209152D01*
X85549356Y-79209152D01*
X85552033Y-79241031D01*
X85562215Y-79362284D01*
X85565085Y-79396465D01*
X85578206Y-79442224D01*
X85613540Y-79565447D01*
X85616897Y-79577155D01*
X85619712Y-79582632D01*
X85619713Y-79582635D01*
X85689919Y-79719241D01*
X85702818Y-79744340D01*
X85706641Y-79749164D01*
X85706644Y-79749168D01*
X85787877Y-79851657D01*
X85819577Y-79891652D01*
X85824271Y-79895647D01*
X85954517Y-80006495D01*
X85962724Y-80013480D01*
X85968102Y-80016486D01*
X85968104Y-80016487D01*
X86010854Y-80040379D01*
X86126809Y-80105184D01*
X86305580Y-80163270D01*
X86492230Y-80185527D01*
X86498365Y-80185055D01*
X86498367Y-80185055D01*
X86673505Y-80171579D01*
X86673509Y-80171578D01*
X86679647Y-80171106D01*
X86819761Y-80131985D01*
X86854750Y-80122216D01*
X86854753Y-80122215D01*
X86860694Y-80120556D01*
X86866198Y-80117776D01*
X86866200Y-80117775D01*
X87022974Y-80038583D01*
X87022976Y-80038582D01*
X87028475Y-80035804D01*
X87176599Y-79920077D01*
X87180625Y-79915413D01*
X87295394Y-79782452D01*
X87295395Y-79782450D01*
X87299423Y-79777784D01*
X87317564Y-79745851D01*
X87347109Y-79693841D01*
X87392270Y-79614344D01*
X87451603Y-79435982D01*
X87475162Y-79249492D01*
X87475538Y-79222600D01*
X87457195Y-79035526D01*
X87449246Y-79009196D01*
X87426610Y-78934224D01*
X87402865Y-78855577D01*
X87314618Y-78689608D01*
X87195815Y-78543940D01*
X87142003Y-78499423D01*
X87055729Y-78428050D01*
X87055724Y-78428047D01*
X87050980Y-78424122D01*
X87045561Y-78421192D01*
X87045558Y-78421190D01*
X86952643Y-78370952D01*
X89435556Y-78370952D01*
X89436072Y-78377096D01*
X89449753Y-78540015D01*
X89451285Y-78558265D01*
X89466664Y-78611899D01*
X89487994Y-78686283D01*
X89503097Y-78738955D01*
X89505912Y-78744432D01*
X89505913Y-78744435D01*
X89586203Y-78900663D01*
X89589018Y-78906140D01*
X89592841Y-78910964D01*
X89592844Y-78910968D01*
X89637620Y-78967460D01*
X89705777Y-79053452D01*
X89710471Y-79057447D01*
X89827570Y-79157106D01*
X89848924Y-79175280D01*
X89854302Y-79178286D01*
X89854304Y-79178287D01*
X89907366Y-79207942D01*
X90013009Y-79266984D01*
X90191780Y-79325070D01*
X90378430Y-79347327D01*
X90384565Y-79346855D01*
X90384567Y-79346855D01*
X90559705Y-79333379D01*
X90559709Y-79333378D01*
X90565847Y-79332906D01*
X90689876Y-79298276D01*
X90740950Y-79284016D01*
X90740953Y-79284015D01*
X90746894Y-79282356D01*
X90752398Y-79279576D01*
X90752400Y-79279575D01*
X90909174Y-79200383D01*
X90909176Y-79200382D01*
X90914675Y-79197604D01*
X91062799Y-79081877D01*
X91066825Y-79077213D01*
X91167228Y-78960895D01*
X100046524Y-78960895D01*
X100047214Y-78967460D01*
X100063278Y-79120297D01*
X100066486Y-79150823D01*
X100125501Y-79332451D01*
X100220988Y-79497839D01*
X100259553Y-79540670D01*
X100290269Y-79604676D01*
X100285748Y-79663914D01*
X100257085Y-79752129D01*
X100256395Y-79758692D01*
X100256394Y-79758699D01*
X100245187Y-79865335D01*
X100237123Y-79942057D01*
X100257085Y-80131985D01*
X100316100Y-80313613D01*
X100411587Y-80479001D01*
X100416005Y-80483908D01*
X100416006Y-80483909D01*
X100534952Y-80616012D01*
X100539374Y-80620923D01*
X100693875Y-80733175D01*
X100699903Y-80735859D01*
X100699905Y-80735860D01*
X100862308Y-80808166D01*
X100868339Y-80810851D01*
X100961739Y-80830704D01*
X101048683Y-80849185D01*
X101048688Y-80849185D01*
X101055140Y-80850557D01*
X101246114Y-80850557D01*
X101252566Y-80849185D01*
X101252571Y-80849185D01*
X101339515Y-80830704D01*
X101432915Y-80810851D01*
X101438946Y-80808166D01*
X101601349Y-80735860D01*
X101601351Y-80735859D01*
X101607379Y-80733175D01*
X101761880Y-80620923D01*
X101766302Y-80616012D01*
X101885248Y-80483909D01*
X101885249Y-80483908D01*
X101889667Y-80479001D01*
X101985154Y-80313613D01*
X102044169Y-80131985D01*
X102058403Y-79996552D01*
X118670956Y-79996552D01*
X118672381Y-80013522D01*
X118685614Y-80171106D01*
X118686685Y-80183865D01*
X118712591Y-80274210D01*
X118729631Y-80333634D01*
X118738497Y-80364555D01*
X118741312Y-80370032D01*
X118741313Y-80370035D01*
X118820920Y-80524934D01*
X118824418Y-80531740D01*
X118828241Y-80536564D01*
X118828244Y-80536568D01*
X118895104Y-80620923D01*
X118941177Y-80679052D01*
X118945871Y-80683047D01*
X119015162Y-80742018D01*
X119084324Y-80800880D01*
X119089702Y-80803886D01*
X119089704Y-80803887D01*
X119130203Y-80826521D01*
X119248409Y-80892584D01*
X119427180Y-80950670D01*
X119613830Y-80972927D01*
X119619965Y-80972455D01*
X119619967Y-80972455D01*
X119795105Y-80958979D01*
X119795109Y-80958978D01*
X119801247Y-80958506D01*
X119886378Y-80934737D01*
X119976350Y-80909616D01*
X119976353Y-80909615D01*
X119982294Y-80907956D01*
X119987798Y-80905176D01*
X119987800Y-80905175D01*
X120144574Y-80825983D01*
X120144576Y-80825982D01*
X120150075Y-80823204D01*
X120298199Y-80707477D01*
X120302225Y-80702813D01*
X120416994Y-80569852D01*
X120416995Y-80569850D01*
X120421023Y-80565184D01*
X120513870Y-80401744D01*
X120573203Y-80223382D01*
X120596762Y-80036892D01*
X120596857Y-80030101D01*
X120597089Y-80013522D01*
X120597089Y-80013518D01*
X120597138Y-80010000D01*
X120578795Y-79822926D01*
X120563548Y-79772424D01*
X120553415Y-79738863D01*
X120524465Y-79642977D01*
X120436218Y-79477008D01*
X120317415Y-79331340D01*
X120222693Y-79252979D01*
X120177329Y-79215450D01*
X120177324Y-79215447D01*
X120172580Y-79211522D01*
X120167161Y-79208592D01*
X120167158Y-79208590D01*
X120097671Y-79171019D01*
X120007231Y-79122119D01*
X119827666Y-79066534D01*
X119821541Y-79065890D01*
X119821540Y-79065890D01*
X119646852Y-79047529D01*
X119646851Y-79047529D01*
X119640724Y-79046885D01*
X119568568Y-79053452D01*
X119459665Y-79063363D01*
X119459662Y-79063364D01*
X119453526Y-79063922D01*
X119447620Y-79065660D01*
X119447616Y-79065661D01*
X119332088Y-79099663D01*
X119273202Y-79116994D01*
X119267742Y-79119848D01*
X119267743Y-79119848D01*
X119119009Y-79197604D01*
X119106621Y-79204080D01*
X118960128Y-79321864D01*
X118956170Y-79326582D01*
X118956167Y-79326584D01*
X118869506Y-79429863D01*
X118839302Y-79465859D01*
X118836338Y-79471251D01*
X118836335Y-79471255D01*
X118775104Y-79582635D01*
X118748746Y-79630580D01*
X118746885Y-79636447D01*
X118746884Y-79636449D01*
X118742942Y-79648877D01*
X118691909Y-79809752D01*
X118670956Y-79996552D01*
X102058403Y-79996552D01*
X102064131Y-79942057D01*
X102056067Y-79865335D01*
X102044859Y-79758692D01*
X102044859Y-79758690D01*
X102044169Y-79752129D01*
X101985154Y-79570501D01*
X101977141Y-79556621D01*
X101897666Y-79418968D01*
X101889667Y-79405113D01*
X101851102Y-79362282D01*
X101820386Y-79298276D01*
X101824907Y-79239037D01*
X101853570Y-79150823D01*
X101856779Y-79120297D01*
X101872842Y-78967460D01*
X101873532Y-78960895D01*
X101867777Y-78906140D01*
X101864920Y-78878952D01*
X110009556Y-78878952D01*
X110010072Y-78885096D01*
X110024545Y-79057447D01*
X110025285Y-79066265D01*
X110041301Y-79122119D01*
X110074827Y-79239037D01*
X110077097Y-79246955D01*
X110079912Y-79252432D01*
X110079913Y-79252435D01*
X110156979Y-79402389D01*
X110163018Y-79414140D01*
X110166841Y-79418964D01*
X110166844Y-79418968D01*
X110233243Y-79502741D01*
X110279777Y-79561452D01*
X110284471Y-79565447D01*
X110290410Y-79570501D01*
X110422924Y-79683280D01*
X110428302Y-79686286D01*
X110428304Y-79686287D01*
X110487269Y-79719241D01*
X110587009Y-79774984D01*
X110765780Y-79833070D01*
X110952430Y-79855327D01*
X110958565Y-79854855D01*
X110958567Y-79854855D01*
X111133705Y-79841379D01*
X111133709Y-79841378D01*
X111139847Y-79840906D01*
X111229511Y-79815871D01*
X111314950Y-79792016D01*
X111314953Y-79792015D01*
X111320894Y-79790356D01*
X111326398Y-79787576D01*
X111326400Y-79787575D01*
X111483174Y-79708383D01*
X111483176Y-79708382D01*
X111488675Y-79705604D01*
X111636799Y-79589877D01*
X111653524Y-79570501D01*
X111755594Y-79452252D01*
X111755595Y-79452250D01*
X111759623Y-79447584D01*
X111762890Y-79441834D01*
X111816991Y-79346598D01*
X111852470Y-79284144D01*
X111911803Y-79105782D01*
X111935362Y-78919292D01*
X111935546Y-78906140D01*
X111935689Y-78895922D01*
X111935689Y-78895918D01*
X111935738Y-78892400D01*
X111917395Y-78705326D01*
X111912650Y-78689608D01*
X111874783Y-78564189D01*
X111863065Y-78525377D01*
X111774818Y-78359408D01*
X111656015Y-78213740D01*
X111599627Y-78167092D01*
X111515929Y-78097850D01*
X111515924Y-78097847D01*
X111511180Y-78093922D01*
X111505761Y-78090992D01*
X111505758Y-78090990D01*
X111392774Y-78029901D01*
X111345831Y-78004519D01*
X111166266Y-77948934D01*
X111160141Y-77948290D01*
X111160140Y-77948290D01*
X110985452Y-77929929D01*
X110985451Y-77929929D01*
X110979324Y-77929285D01*
X110902273Y-77936297D01*
X110798265Y-77945763D01*
X110798262Y-77945764D01*
X110792126Y-77946322D01*
X110786220Y-77948060D01*
X110786216Y-77948061D01*
X110652878Y-77987305D01*
X110611802Y-77999394D01*
X110587813Y-78011935D01*
X110507796Y-78053767D01*
X110445221Y-78086480D01*
X110298728Y-78204264D01*
X110294770Y-78208982D01*
X110294767Y-78208984D01*
X110257303Y-78253632D01*
X110177902Y-78348259D01*
X110174938Y-78353651D01*
X110174935Y-78353655D01*
X110101211Y-78487760D01*
X110087346Y-78512980D01*
X110085485Y-78518847D01*
X110085484Y-78518849D01*
X110078770Y-78540015D01*
X110030509Y-78692152D01*
X110009556Y-78878952D01*
X101864920Y-78878952D01*
X101854260Y-78777530D01*
X101854260Y-78777528D01*
X101853570Y-78770967D01*
X101794555Y-78589339D01*
X101699068Y-78423951D01*
X101689952Y-78413826D01*
X101575703Y-78286940D01*
X101575702Y-78286939D01*
X101571281Y-78282029D01*
X101464247Y-78204264D01*
X101422122Y-78173658D01*
X101422121Y-78173657D01*
X101416780Y-78169777D01*
X101410752Y-78167093D01*
X101410750Y-78167092D01*
X101248347Y-78094786D01*
X101248346Y-78094786D01*
X101242316Y-78092101D01*
X101148915Y-78072248D01*
X101061972Y-78053767D01*
X101061967Y-78053767D01*
X101055515Y-78052395D01*
X100864541Y-78052395D01*
X100858089Y-78053767D01*
X100858084Y-78053767D01*
X100771141Y-78072248D01*
X100677740Y-78092101D01*
X100671710Y-78094786D01*
X100671709Y-78094786D01*
X100509306Y-78167092D01*
X100509304Y-78167093D01*
X100503276Y-78169777D01*
X100497935Y-78173657D01*
X100497934Y-78173658D01*
X100455809Y-78204264D01*
X100348775Y-78282029D01*
X100344354Y-78286939D01*
X100344353Y-78286940D01*
X100230105Y-78413826D01*
X100220988Y-78423951D01*
X100125501Y-78589339D01*
X100066486Y-78770967D01*
X100065796Y-78777528D01*
X100065796Y-78777530D01*
X100052279Y-78906140D01*
X100046524Y-78960895D01*
X91167228Y-78960895D01*
X91181594Y-78944252D01*
X91181595Y-78944250D01*
X91185623Y-78939584D01*
X91197151Y-78919292D01*
X91207733Y-78900663D01*
X91278470Y-78776144D01*
X91337803Y-78597782D01*
X91361362Y-78411292D01*
X91361457Y-78404501D01*
X91361689Y-78387922D01*
X91361689Y-78387918D01*
X91361738Y-78384400D01*
X91343395Y-78197326D01*
X91335078Y-78169777D01*
X91312175Y-78093922D01*
X91289065Y-78017377D01*
X91200818Y-77851408D01*
X91082015Y-77705740D01*
X90993609Y-77632604D01*
X90941929Y-77589850D01*
X90941924Y-77589847D01*
X90937180Y-77585922D01*
X90931761Y-77582992D01*
X90931758Y-77582990D01*
X90844641Y-77535887D01*
X90771831Y-77496519D01*
X90592266Y-77440934D01*
X90586141Y-77440290D01*
X90586140Y-77440290D01*
X90411452Y-77421929D01*
X90411451Y-77421929D01*
X90405324Y-77421285D01*
X90328273Y-77428297D01*
X90224265Y-77437763D01*
X90224262Y-77437764D01*
X90218126Y-77438322D01*
X90212220Y-77440060D01*
X90212216Y-77440061D01*
X90078878Y-77479305D01*
X90037802Y-77491394D01*
X89871221Y-77578480D01*
X89724728Y-77696264D01*
X89720770Y-77700982D01*
X89720767Y-77700984D01*
X89668576Y-77763183D01*
X89603902Y-77840259D01*
X89600938Y-77845651D01*
X89600935Y-77845655D01*
X89543156Y-77950756D01*
X89513346Y-78004980D01*
X89511485Y-78010847D01*
X89511484Y-78010849D01*
X89498305Y-78052395D01*
X89456509Y-78184152D01*
X89435556Y-78370952D01*
X86952643Y-78370952D01*
X86937507Y-78362768D01*
X86885631Y-78334719D01*
X86706066Y-78279134D01*
X86699941Y-78278490D01*
X86699940Y-78278490D01*
X86525252Y-78260129D01*
X86525251Y-78260129D01*
X86519124Y-78259485D01*
X86442073Y-78266497D01*
X86338065Y-78275963D01*
X86338062Y-78275964D01*
X86331926Y-78276522D01*
X86326020Y-78278260D01*
X86326016Y-78278261D01*
X86192678Y-78317505D01*
X86151602Y-78329594D01*
X86146142Y-78332448D01*
X86146143Y-78332448D01*
X86002038Y-78407784D01*
X85985021Y-78416680D01*
X85838528Y-78534464D01*
X85834570Y-78539182D01*
X85834567Y-78539184D01*
X85773552Y-78611899D01*
X85717702Y-78678459D01*
X85714738Y-78683851D01*
X85714735Y-78683855D01*
X85684444Y-78738955D01*
X85627146Y-78843180D01*
X85625285Y-78849047D01*
X85625284Y-78849049D01*
X85603002Y-78919292D01*
X85570309Y-79022352D01*
X85549356Y-79209152D01*
X82921321Y-79209152D01*
X82922965Y-78967460D01*
X82938349Y-76706143D01*
X82958814Y-76638160D01*
X83012785Y-76592033D01*
X83064346Y-76581000D01*
X123506937Y-76581000D01*
X123575058Y-76601002D01*
G37*
%TD.AperFunction*%
%TD*%
M02*
